<<<<<<< Updated upstream
<mxfile host="Electron" modified="2024-01-22T08:02:25.520Z" agent="Mozilla/5.0 (Windows NT 10.0; Win64; x64) AppleWebKit/537.36 (KHTML, like Gecko) draw.io/22.1.21 Chrome/120.0.6099.109 Electron/28.1.0 Safari/537.36" etag="vAJ3XmFaIwJt8o689y0C" version="22.1.21" type="device" pages="2">
  <diagram name="Page-1" id="wIqU8FdTsNSahX9Sebv4">
    <mxGraphModel dx="3402" dy="2312" grid="1" gridSize="10" guides="1" tooltips="1" connect="1" arrows="1" fold="1" page="1" pageScale="1" pageWidth="850" pageHeight="1100" math="0" shadow="0">
=======
<mxfile host="Electron" modified="2024-01-20T18:20:29.208Z" agent="Mozilla/5.0 (Windows NT 10.0; Win64; x64) AppleWebKit/537.36 (KHTML, like Gecko) draw.io/22.1.21 Chrome/120.0.6099.109 Electron/28.1.0 Safari/537.36" etag="qgcqTu56li1L80ek-RIC" version="22.1.21" type="device">
  <diagram name="Page-1" id="wIqU8FdTsNSahX9Sebv4">
    <mxGraphModel dx="3134" dy="1936" grid="1" gridSize="10" guides="1" tooltips="1" connect="1" arrows="1" fold="1" page="1" pageScale="1" pageWidth="850" pageHeight="1100" math="0" shadow="0">
>>>>>>> Stashed changes
      <root>
        <mxCell id="0" />
        <mxCell id="1" parent="0" />
        <mxCell id="YYTNkHkmk9sQ7s7jDryC-1" value="Subject" style="swimlane;childLayout=stackLayout;horizontal=1;startSize=50;horizontalStack=0;rounded=1;fontSize=14;fontStyle=0;strokeWidth=2;resizeParent=0;resizeLast=1;shadow=0;dashed=0;align=center;arcSize=4;whiteSpace=wrap;html=1;" parent="1" vertex="1">
          <mxGeometry x="200" y="280" width="200" height="170" as="geometry" />
        </mxCell>
        <mxCell id="YYTNkHkmk9sQ7s7jDryC-2" value="+ Subject Code&lt;br&gt;+ Name&lt;br&gt;+ Teacher&lt;br&gt;+ Submission-Date&lt;br&gt;+ Status-Of-Subject-&lt;font face=&quot;Helvetica&quot; style=&quot;font-size: 12px;&quot;&gt;Materials&lt;br&gt;+ D&lt;/font&gt;&lt;font face=&quot;Helvetica&quot;&gt;ocuments-Waiting-For&lt;font style=&quot;font-size: 12px;&quot;&gt;-&lt;/font&gt;Approval&lt;br&gt;&lt;/font&gt;&lt;font style=&quot;font-size: 12px;&quot;&gt;+ Description&lt;br&gt;&lt;/font&gt;" style="align=left;strokeColor=none;fillColor=none;spacingLeft=4;fontSize=12;verticalAlign=top;resizable=0;rotatable=0;part=1;html=1;" parent="YYTNkHkmk9sQ7s7jDryC-1" vertex="1">
          <mxGeometry y="50" width="200" height="120" as="geometry" />
        </mxCell>
        <mxCell id="WkRM8bRASP1RiSPlc05D-3" value="Documents" style="swimlane;childLayout=stackLayout;horizontal=1;startSize=50;horizontalStack=0;rounded=1;fontSize=14;fontStyle=0;strokeWidth=2;resizeParent=0;resizeLast=1;shadow=0;dashed=0;align=center;arcSize=4;whiteSpace=wrap;html=1;" parent="1" vertex="1">
        </mxCell>
        <mxCell id="WkRM8bRASP1RiSPlc05D-4" value="+ Name&lt;br&gt;+ Type ( Bài giảng hoặc tài nguyên)&lt;br&gt;+ Teacher&lt;br&gt;+ Submission-Date&lt;br&gt;+ Status&lt;font face=&quot;Helvetica&quot; style=&quot;font-size: 12px;&quot;&gt;&lt;br&gt;+ File&lt;br&gt;&lt;/font&gt;&lt;font style=&quot;font-size: 12px;&quot;&gt;+ Subject&lt;br&gt;+ Note&lt;br&gt;&lt;/font&gt;" style="align=left;strokeColor=none;fillColor=none;spacingLeft=4;fontSize=12;verticalAlign=top;resizable=0;rotatable=0;part=1;html=1;" parent="WkRM8bRASP1RiSPlc05D-3" vertex="1">
          <mxGeometry y="50" width="200" height="165" as="geometry" />
        </mxCell>
        <mxCell id="louY3IBBI9BvioG2gEGh-1" value="PrivateFile" style="swimlane;childLayout=stackLayout;horizontal=1;startSize=50;horizontalStack=0;rounded=1;fontSize=14;fontStyle=0;strokeWidth=2;resizeParent=0;resizeLast=1;shadow=0;dashed=0;align=center;arcSize=4;whiteSpace=wrap;html=1;" parent="1" vertex="1">
          <mxGeometry x="880" y="300" width="200" height="140" as="geometry" />
        </mxCell>
        <mxCell id="louY3IBBI9BvioG2gEGh-2" value="+ Name&lt;br&gt;+ Modifier&lt;br&gt;+ DateChanged&lt;br&gt;+ FilePath&lt;br&gt;+ Base64&lt;font style=&quot;font-size: 12px;&quot;&gt;&lt;br&gt;&lt;/font&gt;" style="align=left;strokeColor=none;fillColor=none;spacingLeft=4;fontSize=12;verticalAlign=top;resizable=0;rotatable=0;part=1;html=1;" parent="louY3IBBI9BvioG2gEGh-1" vertex="1">
          <mxGeometry y="50" width="200" height="90" as="geometry" />
        </mxCell>
        <mxCell id="louY3IBBI9BvioG2gEGh-3" value="ExamBank" style="swimlane;childLayout=stackLayout;horizontal=1;startSize=50;horizontalStack=0;rounded=1;fontSize=14;fontStyle=0;strokeWidth=2;resizeParent=0;resizeLast=1;shadow=0;dashed=0;align=center;arcSize=4;whiteSpace=wrap;html=1;" parent="1" vertex="1">
          <mxGeometry x="425" y="860" width="200" height="200" as="geometry" />
        </mxCell>
        <mxCell id="louY3IBBI9BvioG2gEGh-4" value="+ Type&lt;br&gt;+ Name&lt;br&gt;+ Subject&lt;br&gt;+ Format (Trắc nghiệm / tự luận)&lt;br&gt;+&amp;nbsp;Duration&lt;br&gt;&lt;font style=&quot;font-size: 12px;&quot;&gt;+ TeacherCreated&lt;br&gt;+ Status&lt;br&gt;+ FilePath&lt;br&gt;+ Base64&lt;br&gt;&lt;/font&gt;" style="align=left;strokeColor=none;fillColor=none;spacingLeft=4;fontSize=12;verticalAlign=top;resizable=0;rotatable=0;part=1;html=1;" parent="louY3IBBI9BvioG2gEGh-3" vertex="1">
          <mxGeometry y="50" width="200" height="150" as="geometry" />
        </mxCell>
        <mxCell id="louY3IBBI9BvioG2gEGh-7" value="Notify" style="swimlane;childLayout=stackLayout;horizontal=1;startSize=50;horizontalStack=0;rounded=1;fontSize=14;fontStyle=0;strokeWidth=2;resizeParent=0;resizeLast=1;shadow=0;dashed=0;align=center;arcSize=4;whiteSpace=wrap;html=1;" parent="1" vertex="1">
          <mxGeometry x="870" y="570" width="200" height="110" as="geometry" />
        </mxCell>
        <mxCell id="louY3IBBI9BvioG2gEGh-8" value="+ Content&lt;br&gt;+ IsRead&lt;br&gt;&lt;font style=&quot;font-size: 12px;&quot;&gt;&lt;br&gt;&lt;/font&gt;" style="align=left;strokeColor=none;fillColor=none;spacingLeft=4;fontSize=12;verticalAlign=top;resizable=0;rotatable=0;part=1;html=1;" parent="louY3IBBI9BvioG2gEGh-7" vertex="1">
          <mxGeometry y="50" width="200" height="60" as="geometry" />
        </mxCell>
        <mxCell id="louY3IBBI9BvioG2gEGh-9" value="Trong cài đặt cá nhận&lt;br&gt;có option chọn nhận thông báo &lt;br&gt;(+ IsAcceptNotify)" style="rounded=0;whiteSpace=wrap;html=1;" parent="1" vertex="1">
          <mxGeometry x="740" y="595" width="120" height="60" as="geometry" />
        </mxCell>
        <mxCell id="rqF0E4ZXU8l-zSK0DjSr-3" value="NOTE:&lt;br&gt;Chưa biết thông tin hệ thống chứa gì&lt;span style=&quot;white-space: pre;&quot;&gt;&#x9;&lt;/span&gt;" style="rounded=0;whiteSpace=wrap;html=1;" parent="1" vertex="1">
<<<<<<< Updated upstream
          <mxGeometry x="-230" y="-240" width="120" height="60" as="geometry" />
        </mxCell>
        <mxCell id="rqF0E4ZXU8l-zSK0DjSr-4" value="" style="shape=image;verticalLabelPosition=bottom;labelBackgroundColor=default;verticalAlign=top;aspect=fixed;imageAspect=0;image=data:image/png,iVBORw0KGgoAAAANSUhEUgAAA30AAAChCAYAAABzntZwAAAAAXNSR0IArs4c6QAAAARnQU1BAACxjwv8YQUAAAAJcEhZcwAADsMAAA7DAcdvqGQAAFxuSURBVHhe7b0J1GVlee95wIGkHZJgFAdQg0EpC8E49L0ruZGYhCErvZzQwmDn2oJGVueqATQrbWH6Zgm5yVJAb1wJRgrNjSkF016TZRIo2ihqoknjUEQsDQmohSKopcEhCMjX5/fW/p96vrf2Pnvvc/Y+4/8HT+3pHZ/3eafzvnt/h2wMGRjTkGuuuWZw8sknF1f7mcaEbrnllsG+ffsGxx9/fHGnPaeffno6XnHFFekoCPuoo44abN++fXDBBRcUd+eD9LZjx47BmWeeWdw9gNK6a9euwUknnVTcrabM/SLl1xhjjDHGLA6HFkdjamFyxcSFSZ6EScwhhxySJjWTcOmll0494bvyyiuLq80wIVqUCRATs927dw+uvvrq4s5mjjzyyKTPNhO+HMLYu3fv4MILLyzuGGOMMcYY40mfacj555+fJldMKiKsWjGxYjLIZKQtZ599dnE2Gazubdu2rbg6mEVa8WJye8oppxRXk6PJXRk8Y3J5/fXXF3eMMcYYY8y640mfaQSrR0zumFTkaOLGql1bysLrirJtlPOGNE0yOW4Dk8tpVk+NMcYYY8xq4UmfqUWrRkcffXQ65mji9r73vS9t82S7J8LkBtF13AKqexIh98TJ1s38eR1yjyi+yy+/PF3r3b8c7rOSGdOeb1fV/Sj4Oe6440bnwJFr7hOv4ox6YGsm4ZNHrkHn41bo5AZh66qI6a7SufzyTGnmGJGecsGPmQ1s8b333nsHP/jBDwb33HNPpfAct8tKzGee17vvvnskMb8IfhD8L3P+jTHGmFnjSZ+p5bbbbktHBlkMvBiM3XXXXZsGZlu3bk1ufvEXfzFtLxRMCPPBGRMjtmTGgRsTDiYXelfthBNOSCuL8XkTcE/Y+NX7cayucW/nzp2jQaSE+2xbZSXzgx/8YMoffs8555zkF5gcKS3aVsm7jGwd/cxnPrNpeyn3eAbEf8MNNwy+8IUvpHzdfPPNSV+f/OQn03ZY4nriE584uOqqq1J+gXt5GpFPfepTyY3C+Jd/+ZeR+2c+85kpTMDtwx/+8OQGeC6/QDr+6q/+avDFL34xpU2TQo5nnXVWyh/5JL/A+aSrsQzOSQ9pkb1wTZpUrmY/6AQdRUFf0l1+T/c54nfRobxJZ8xPno/8PF7HYy7YFLa2KJTlVRLzNY0QhvLdtC4pXbFOlonSKMF9LrkbpCwc3BKn63s3xDaV47zsnvIk7jb2NzeKtEa7zW01itzUiWx7HmVAnLEuS8ry04XE/LouLzee9JnGUOHLGgSEhgChccDdOJgY8S6eVqQEkwtNqpg4aouiJpRNYcLCJI7wSROTqt/8zd8sbRjf8Y53DE477bT0/HWve12695jHPKYIaT9Mjk488cR0ThqZ5N10003pugr8PPrRjx684hWvSNteCf9hD3tYCv8JT3jC4I/+6I8GT3nKUwZbtmwZPOMZzxj8wz/8Q/JX1XCTH/wojJe85CXJPQ0x1/iD6B94TnwK/8YbbxwcccQRSUANOHpHz5rgaSI7ySofHVJVPqKQtnl0mIuEdJULupFQnyS6V+ZnEXWJfZWlV/lAYr5iXiW5GyQPD8HNvKEMqtIX78e8NJE8nCjkW/W4Cp5Lh3VpiHEhZXU3d4OU+dV9ROmUoKtYrnK7CHastHGs0+0sIA3SUa7XWeqrLB1Ky8YClFvOvcMyvDtLr+xX+ssluq2SMnezKocYd14XYz6mkTzMGLbqhVlOPOlbMuIWv1ltv3v84x+fjnx5MjYGanBYNfrsZz87+OVf/uVR4wBVnaUme6eeempy03ZSVweTRSYtTLZIy4c+9KHBscceuyntiAYw6uA5V6NGutSwMYm87LLL0jmwMqhJYBn4ZQXve9/73uBFL3rR4J//+Z9TWDFuVuOAVUGupTOO0Z0E/ZIuXefuy/wDR5WTrhG5VwPOyiMTVW0vve666zZNApsS0yhR/NJ3fEY68LOOoPdYXpxLHzzDjnLhPs8Ruc/1uSjktqC8RSE/VXmNIncS+ZcOoh5wPw9Il9IR0xUl5n1ayXUyjtxtWXi5xHRLt2V5K/MriXGWlSOCO4UTw5wXSjvpUJ7nmR6IaYllIB3OAuIhbrXjB7XnRXoWBdJyz7DcRukrRPY1jaQwijKQKPw+dZDHF68lZemdVshTPM6rjTXT40nfksGERgMhyaTb75pAJWeCwkrVe9/73sGXvvSlgxoZbRF88YtfPGoYoKrxY7LHZIetkX2h1T5WDFm5U+OVpx0hnWrMdA06sjLJRE+TbMJu8qcVFCZl9P73v39TnNyHqE+IbqIQBquL8R7EPEHVc8WXP1fesSHKhG2g5JGtnqyQtoEw1fFVdUhlQtqk63WBPEc9SQeUc4SyOPTQQ0e2JwHc4i+GJcnDmSXkI6ZF+SvLY56vOokQjnRAHIqPgSjXs9YBeZMovzHPZVJGnbuy50gdudt4nUtZPnJRvmL+cuL9snPFo7h01PmsUfzYT5nMgzxN0k3UZ98QD3GrPt+juq0j6SrStiiQFon0hqA76a+McTqVzpF7kVA2sf3hyP0uSXEW8eUS7SFKGWXucomUPcvdmOXBkz4zFjWQesfrSU960qiRQd75zncOXvWqVw3e9KY3pS2Degbf+MY3UuOg9/FYTdIEUdsjWfVjhalrmBy/4AUvGDz96U9P77yRpthIxjwA6dR9NW4848jHWPSuG1L2ZyD4iI146UtfmlbmiBv3vB/4uc99LvlTHH/6p386ePazn32QzsrSibz85S8fXHzxxYN/+qd/Stcf+MAHkvvnP//5g7/9278d+UfnPCd8QAe8q1gWPiifrPBRJsoj0ubHBHV66vDSwKDoaAk/iuKPHTGyLpBXDRCijtA5MLlhonef+9xncN/73nfTEdEkEFR+MUyJwpsVxEe8cQWgKn/Ko/KpPFaJ3MT8l+mA+BS/0sCzWaB0ROFeVb5jPqLE52Xu8ns6r0Puo78y0XOR56kqX1EUTh4mUkaZ7pBZo3ixpSixrZo1ijfqJdd930gHSKrXRZo46r7uIfMm2Wcoy6S34bHMZmWj0Wbj8yjRnZDtEg+6iW0g0pU+yuqI8iPydEYZ9ywXuc3dx/tmOTlkaDSbrcaYAhoVNWJq2Fk9Y4IXYQLCVkAaAg3MWCliZRBYQeKaL06yQsbEjwkg4A9hJe1lL3vZ4G1ve1u6D7iXO2DimU+4mJDhF9jSybuCgg+YcP3a17521Bkh0eR/7ud+bvD5z38+nT/rWc8aPO5xjxtccskl6RpwzwSybGKq9w6ZMOlDKcBWUCZoH//4x5POCINVTSafgrje+ta3pnMmiL/wC7+QzgF9sj005/d+7/cGb37zm9M5E23O3/3ud4+2mjIx/Mu//Mt0Tvznnntueg4vfOEL0xHe8573pMmgIB2PfexjS/+GYK7TMrATdXDkN3ZIZc2LOg3Zigb297vf/dL1KqN6JLuQnqQTOlbpJXa00qV0K78xDJB/dCmZBaRDeZLEslfedIznHOWmCuVfIj3oXPeBcGI80cb6grhjW6n8Ky15eSJtUN6EwlCYCnccsVzy8ISeRduSfkVZvGXxc527FYojjwfwozKblf0CaYp93Sjfw2zd59AD6ZllmuD73//+prYV8jqe675rlAZNYnJ7iOUlmSfoibTG+ghKqyTabcxTJUM3uMItIhvRuSBM2bx0g0xTTuRBeVKdifEoL1EmJddFDFN5miZ8Mz886TOVxEGMGk7kK1/5yuCpT31qcsPkgglF3iCokZtnB/A3f/M3g4c85CHpfT6ln4YyNs4R0q+0x86Lj72U/c0/VjDL7hM+elNHLb2pc5gnKifyiSiPrERyn0lshAk6H5sZt+pHXuPAJOazLL9KgzqqXN+rCjagOiVbBOmC8tBRwrOI7Fc2lduXwpJO73//+6dw+kTpKKtjsayVv1zyPFYhuyJsHWN8uo+A4kXUHiFN42sDcaps0YPSQlyxPJXftmlQnkB+FQ5hNiXXUQ73pcuy8gTpVPnhGNMR86b78Z5QuMQhkc7wQ1lhv2V++4D4775nWH53H7DlPD2qU8pr36Af2lXaV9Kk9Eg3s6jfpIH4EbVdEdJDGlS/1I7PSkdlpLIcplV9kuxX5SjhOtpXVb2I4AaR/UbRMyDcaDsxzkkgH3HSBwof/as+Kl5EbprkKxLdx3CimOVkfrXSLDSxIaOBiY3aIx7xiDTxY7WK1ST+OLsaOyT6lcwDJmX536KLjVmOnikf8Pa3vz19wCaHsJ/2tKcVV+OJ4c4b5S2XJz/5yYWLzbBqWbfNk/LFRiRcK9wy9CzaR/S7ipCvOCmIeY2DAg2YOC/rWOVWbhB19iC9Ej7xxAFPHxC+8pTni/RrQKK0Ku0I99sMHhReWVicKzxEelC6pHukyi6nJQ9X6ZUOpIdYdk1F+Yx+CU/l3pSy8igTpRf30mmUsnwhed54hvsyFEYMF6RHleGsIL6Ne4dxbgzbJGQYN/KDew+0TZJZIR2ktBUS9Y/0Tcy30iLyckPkbt4oPRKQ7qLNyobjvSaS10n8y55BulBbrPZnGt0oHyLmR+mPaVK6dN5U8rwhef7McuJJnymFhkqiRjxvcPg6JpO/n/iJnxg88pGPTFsl1cDKj8KYFfrj6Mgb3vCG4u6BDqCO3I3+NILClEC+KjaOJnHPkjw9+lt+eT7rtnYSjmyDY1NwLz+5rCKxPiHKJzrOO+smAznclHXIEPWq+PqAAYwmVUhZnmK+2uSvDsWRh12mC/I/q4kfqO4gpEMS07WoSK9KK6K86LnuI3KLyE0bYhwRtQ99llPOKM7hxC9N/oo6pHPV21mmSWnI41U5TKLztuTxK06OeTqkwzy980LpEUqv7HsSYhhlbZzaIOkEXdzzgwPt5KQTP+VDR8KPaZEoXmPK8PZOcxCYBNsItDVCAzru15mLGqK8QVRDOEs0wFND26TTVrrVgE+ylYc4iC/qj7gXpaqpo5g2n0C+tPWH/LbtzKKtkAalZZVAR7E+SUcx35PqH5uKdi4bz8v4/kM5tMP6p/iUH+VJ5UncHCWT5K0t5F2Sp410Iegj2j33uiCWA/FznZcBelgWlB/pkTwJ8kGe4nEaKB/Fxbl0R7gqp76J5RfzzX3e6RtaT8or9fSwww5LMgtoM+K2SumF+EkLaeoT8p+nQeWDbXOMEuv9PG2edKpPUjmqLqr8SG+XqK0hbiTVm3uLH/gwo2F86IM0yK7bpAH9kx+OyS6HEJbC69sWzGrQf09slg41XhIaGEkd0a380wBynCeTNPDTdgryz3HasLpE6Ynpm5RY3pMS7WXasBYR2b/yB+g8Tgg4nwTC0QCCsBhUaDA2jOzAF+yG0hUaEKdBTajbGvCRDk1kp8lbW4hbcUof0oXsSoMxSdcQVxTilywTSnuenyhd5UvhEGbOrNoC2UdpfMWt6KbUXQ+UxSdddaH7OtRuQSx36prqemx3QOmVv0Uh2myZrU0L4eZt333vM2yDDjmgF20VZuWP4yQo7bE8pHtj6rClmINQQy/JO5061OCXyTypa+jViE6LwkHUIEeJz8tkUmIYZfHENKiTju4moa1t5Mj/ItlJl1RN+PIB0zQQnsJSeNwjNv6WFGmQTAthxMlezBO2pAkXwvU8QAdKwyZ9FHamPPQ18RPEGWXZKEt/bDN07II8HrULKrO+kR3XEdPVN2o3RNS5yqFPVFc4kl/ije1WFNUxBLdKe0z/PCFdIp73AeGjk9j+qKzQTZr43XOgHZ0E6VrSty2Y1cGWYjYRG2t1bsgkqPHXEZk1NIhtmcRPJDbEEhr+cSJ38isZR3Qnv4qrLk7FJ6mLq4xYrpPaCOBXMi876YtcP+g5lgODgi6gDOMAQ+U50mkxeJuGfMKn8JQn4pfMG9KjQVfUC0gnmvRNOvAaR6xPk9StRYB05yLy62nJw1MZcVTd6ZOyeJSmsnzOIk0x/zEtarP7hDhj/VB+iTev61zH+gVKt9qIRaGqPPsg6gjdHHLo/njj+6Iq42mYVX7MauBJn9lE3hhJ2hL9xrDWBXXM6hBjBxk7A91Tp5k6h9Ax1TXochvjKosjl+gWv5PQhZ1E8K8wkWUn6gVROfFuncpoUt2XkZdpsp0iblb8VFaTgF8Gf3HCF+0u2taiQLqqJn7Kg/I0qV7KSHov4DxeLxOzTHfUk8oi2W1RTn1CPLH8SYfqTxTRpa2Moypdo7rdI5rwIeifdCj+vL6rXsV04V7+5o3S1LfOypB+0vHQoZ7iVs/Qnk4C+ZlHnsxy40mfGaGGWo11Fw22wolhrwM09BJ1jtpyFgeiEnWcNOIc64iNffRXFZ/izONWvG2hPNVhqXynQWEgq2InUTfqoFMZFeWEdI1sgGMq18JOon7bgp84QFF+FFe0p0WDNEX7l15IP/kgP8pbV+Q6nkTni8As00156KiyUflI+kJxKb9KQ7QViZDbvlCela6YHklfUBf4WAiiSR+QBtX3eFR7U6ajvstu0UEfB+lJK35T6ke2YUwbPOkzI/KB3bQNivxz7CrMZUIdYxQNQEcvehf31Skg6jxjB1pGdCe/eTzjRPFOAuUZ7WVaZCNRVsFWYh40WFNZ9TFwU9hRFG8TmypD5RzbBsIhzGhrk4Q9C5RG1Q3pAmR3XdlxzqrZcKTLvMk2cxtS+fRRNoI4lBelARuJdUei9HWZ9zKUZ+KJaYrSF1rhi3UeiBOdqB5JFzFtugfSa59ltwxEnSWbKlb7QOW87joys8OTPpNQ4xxFjfY0KIwY/rpAB0gjr0FxlahTSB1C6DxjB1pF7HDxr7AkhB+/JoboGX4mgbLUYCDayrTIRjTYQJYZ2X1E5dqkbCcl2pMk2lUbYnkoL7I5hU1ciw7plO1LH+RDNqd8mnLKbLlrVC8kQnH3EX9ZuMSt+hJFaZIfbKYPZI8xbdKJ0tIXqgcSpQOIV3U+R/qRgHQkmTfKxzyI7bF0pfKdVj/zzJdZPjzpMwk18BI1SNMSG7UuGrhlJXbYEjoAOoM4EEVix6ljGXJXFl4MM7rT+TRgK/oluKmtKN5cQP5lHxpwIHXhLgMpD1k+lPc+IGzKX5P8ONlpi8o4ljPhR3tbFmL9UF0A2Z1szxwgr3/5dZfE9kllI2R7XaOyV/iybYna0Jg2uHdjv58+kC0qXZCnqy9i3GXxj2tDon7in7lQWItCX+VWR25LgvTMK01m/fCkb4W4/PLLU2Ny+umnp+vzzz8/HZuQN/RNGyE19LEREwoHycM3B6AzkMROoUynOXInf5K+oOzipAxRGZfRNB8gO4lhcz0pt9xyyyj+66+/vrg7O6JOOJOeJH1CnvOJX1u7kP5VZxHpU3bG+TIR61hMP3mLeTWzJ7erWDaSrom2LZSOqvY4uS++wNhHmghTtiiUJklfKN6ok6Zx82ykp+H/MR+SdUb6G+loSB/2Y8w4POlbIW666abUiNxwww2pUTn66KOLJ+PJG2ZEjX5Zo6RGK0q8D/IXw4nhm83kHYL0OI7oFsE/A5U+iZOxOCmA3FaUhzydEj0T0U5iHJOya9euwY4dO1KYxx9/fHF3dsS8DRNxUP4475uo6zYonYjSqbBkq33bWh+QftKdD+hj2SBm9qgsYrlEuq4vKnMJEGdMA19clK3oGeC+D1uJ4Valq09ivJv0UNSZcSiNiIj5QdadkY74L9OVMbPAk74V4oILLkjHz3zmM6mxPfPMM9N1HbFRVoOPjIPGKnaEOtczUBgcY/g6NweQHqMOdT4OuYv67xOVncoylnFEaYlHDSA4l4gYToxD8UzCySef3LgO9EHMIznI88YW2UWFSakm3tI/eaH8NACM5bdMKP15nYllM6nNmenI2weVTx/lofrIMdo4Ijs/9D4HJj0cQe5lK10S0xPTRNySvoj1PeqhadzRPeeQ8jEMM7Yn64z0ykqoMfOg90kfWwxl6E22G0b3kmuuuaZ4ejDHHXdcI3fzQNstJaQVSCfbzTjqWZutmOOQPnJdsOWT+2x5i9Ao7927d/CABzxg8CM/8iODn/mZnxl1OEiO0iuJHUJs7EUM64Mf/ODgQQ960OCHfuiHOssvyGbmsYWvS6JeJ2FSf02hDDXQkXDvK1/5yuCRj3xkkmc+85mjdCgv0TaQX/u1XxscccQRg3e9613JnYi2kscDsa7ndpyDLRx11FHJ7SyJdZrtlRxjvSAvDH70hbxFnPjluqc8gDxo8MtxmSH9yovKJrc7M3vytkJlA2obukK2nZe10oBEO1G6INoJ9bkrlJ6YT+khxt8Hildxl+mgDqVR6Uz5KfIkWWekl6ijaekqHLMe9DrpYzB+4YUXFleDdF43MYvuYevWrYOTTjqpuNoMg0C2Mgp+2V+UgT8V8ayzzhps37591JBeddVV6T7pBPLF865gkom+du/ePTjnnHOKu/uRnvbt25eOgg7r4Q9/+OB973tfcWd/Q13FIx7xiOT+wx/+8KgzUIdQ1ZAp/894xjMG55133qZ7XXDjjTem42233ZaOVezcubM4Ww6YTF177bXF1QFuvfXWVA4Pe9jDRuVapftp0CQLu4I4KIjlR1re/e53p/McpUsDCOzm85//fMoXNlqVZsImvj/5kz8ZDRSoP00544wz0vZO6pfSPwuo09Q/EesFefryl788+LEf+7HBgx/84MGnP/3p0QdxpkU/MOmHpWnQ4EzlDbEMqe/LTswP5yCbVt67QGGbZqAvlU3UncpG9tgFMUyFO4r/kAOTnbyPk3tspOvVq5geRMhW+yLPy0gPwziV9yYonfgV+/MSJn0hX+tI1I0xs6a3VkS/xKvxYjICZYNYwcCFAZP8IGxVLIPJ47nnnpvcsFIlrrzyyuJsfmjgxYBTWy7hyCOP3KSLrrn44osHV1xxRXp/6ZJLLtk02NWWz/zdJjXEPAOOkhwaq69+9auDD33oQ4M/+7M/G3UI6hTKGnyRh8uxq19IyTPhVf04AKSZlcZl4rd/+7eLs81Qhyjr22+/vTdbAmyGukVcEG1F5ViFBgw6ItjJO9/5zsHHPvaxVEfIR77aF8HGbr755tq4ctQ2YA/Uv6uvvrp2ZbALyCtywgknFHcG6U9lSA8INvjmN7958PWvf32wZcuW0WrftHWBH5goq6r2sg3oOy9npV9luQrEchGyceV/EmJ4kF+b8UhfUW+yxUnLJCeGl4dLvPoD2pzHCZ/SxNc7u7CVnIPSM4yOtBBvn/VOEz7Fq/iUd45Nwb30BYR5b/HhmyTK2xqyqWyNmQO99t5xwvOc5zwnHU888cR0LIPBJQMmGgt9gbIKBkx6X4fJlFbMmn68pC8YcGr1Zdu2bemYw4SsaxjUxgEfA16tKFahhr5Np0XZMGBnRZaOIEps6MuIcezvCLrrLMdBeZx22mnFVTdoG19fkwn0+xd/8RfF1WaoQ7/yK79SXO0HPfahS+oWK2zRTuriQS8SDQAQVih/93d/d3TNhPXJT35yqc0wIXzlK1+Z4iLeNpOi2DYAPwrMAukmrvSRdtUN5Od//ufTKiTuyBMTvrvvvnuqiR82SHiU1bRUlXMsy1Uh2mlEeUcPkxD1luvR1JOXiXTYpS6rwiuzBziofxt6U12RTEuaSGZ/CoL4WHXss97R7sSxABBv7NvLdFKF2omor6GmU740WV5Xot3FcjZmVvTWksQBCFsuGcQyCapajcFN3KrJih0NRtV20KoBztOe9rTibD5cdtllxdmg8ouB6KDsmd67iw1sfMeRlTtt49J1RPcR/ElHMdy4/VWNfN4Asfqid7T27NmT7uGXc97F+vEf//E0YGeLGit/dAo8Y9saz17+8pcPfv/3f39TGHlDR7wMfjd1pCVoiyGiFVTlhzxG/ZTZChPhn/7pn07nTKLYisgWQ949i+k7++yzR1smWWEibx/4wAeSv6g/BB3KjnGr+6Qluo0TQk0Sc8HPiEI3r3/96wcXXXRROic80gikk/OnPvWpo7SyBTQS9YGUTUqjDSHkJ6YP8Kdr3o2jjHEnexkH9oOdPPShD01p1sDh0Y9+9ODtb397encUW8Fd2Uol5UO+4Y1vfOPgh3/4hzdNpIBwlb68HrCtU88Q0q26EO/HPI+rS1GqiOV+3XXXFXf3h4ONf/aznx386I/+6OBJT3pS0gvCVk/0+Tu/8zvpPVfeAXzta187CgepIpbhpZdeuikv2AB1hTTFdEU30q+QO8qJtDzwgQ9M5RS3D9fV1WVEeVK+YjtVZ+emH1Qeua11WS7jwsrjFdFW5Df2odPCn4FIkj77dHAb1BfKAyLIq9ptpA2kdVO9IunDLCWdkb8OdLWMyGYkXbGu+jQTMjSYXtm+fTsWOZLhgKx4spm9e/cWZ/vPo5/4rIrh4DHFNW9Ih9LdhKif4cB2dL1jx47CxYEwdW84ed50LX3hDgiH66gPrhGewQ9+8IONO++8c+Pb3/72xje/+c2N97znPSM3F1988ca73/3udP6sZz1r49Zbb03yhCc8Id0bDmA3/vAP/zCdP//5z9+46667Nv793/99dA/BP+EojOHkJIXxG7/xGyM3H//4xzd+67d+K53H/OYo/0o7xLzpeW5bpOvGG2/ceMtb3pKeP/vZz05pIC2f+MQn0j1kOLlL93T9kY98ZOM1r3nNxlvf+taNF7zgBeme4o7li0BVGSqNpItrlQ95jc/F3XffvfG9731vYzih2Tj22GOTmyuuuCKlDZH+Sbt0+5znPGfjjjvuSPofThjSPdKgOPM4RFka4rlsjLCuvvrqdL5ly5aNb33rWxtf//rXN2677baRLhHZC/KmN71p48///M/T+fOe97yN7373uyl92Ar3/vEf/3HjYx/7WDrH7r761a9uCov8vepVr0rPzz333I1/+7d/S3q5+eab0z2E9MV2QihfsifyxLXKj6P88CxeC13zrCyOHMWhOKW76OeJT3xiuqZs/+AP/iCdU3boct++fUm33DvttNNSvfzkJz+ZrmUzZSgelZvSoXzJL/diWLqWTmJ7cs8994zS+nd/93epvLEv9I99rhqxHcTOyC9HbJb2oynDAfPG97///eQPfREGR4XD82UD3VBv0Q16oZ/g+J3vfCfpDFvpC2yNuIkLPSJdxqu2lrwpfK7HlTllSPy4pc5+4xvfSEfCaGMrVRAG9oLtoOtvfuubG3d8+44UZ1/2gy7RM3kiTvLDkTxxf1Jdy3bKwiU/PO8T0o0uiZM29mtf+1oqr67KahKka9JAPVLbSjqbtK2kmzoQ6+Ks9GlWh9736rDFczhwKq72f2ylbPUhrtxxPkzbaMsmv+qPg1+w+UU6biddNshrXP3jb+41hZUN0Bbaww8/PB1ZXS3TNfCrHjqWiOHEYvDCF76wuBqkj24Av9h99KMfTR+CoXz4JU/3Odc1DCdX6aMt4+CdK7bhKe5x+dV2WH3kh1UOVuaa8KhHPao4a87P/uzPDt7whjcMnvKUpwyGk5J0T2UzHDinIzqPeoO8DIXsX35ZOYP48ZxIVZp5H2w4KUqrfDmsGrF1EkgDK5Gkr6pOaPujbASJW6P1niRhYSsi2k0Z2M+LXvSikT1opY8V4eFEMN0jzIc85CHpXCulkZg/4hl2aKPtR0IroUJ2rvcPteKvPMl2ImW6ifWFehTbpbhKHlHY2k6tditC+zTstAePecxjNtUV8h71+au/+qtpuyd6BPx96lOfSvmv0nkO6WGbPHUsUvUhI63mYZfEQb0E4gXSKFk1+sybylV1xjQnL5OudZmHobjG2YHSJDdKk9I1DQpD4QHxsLUzxtk1xJnHq/58klU+oTCQmHblc1p9LRvkW31Y1DfStGxzPeZiTBN6n/SBJnEa9DalycCeQRqDrTixnCeaeEHVILFrxk2YmKSVQXnkDVAVNDaxEX/JS14yKhu2rZU17lUoHsU/Ll6hrZRs+dWgPA7Gu+YjH/nI4I477iiuymljb5rkaXAtv9FW2oDuNaD/3Oc+l45V5TwOTU6YwDI5K3sHlK2Cv/RLv5TOcZN3WDmyFdkCRwYO3/rWt9I1sH3w8Y9/fDon/bipsh3i0KQPqUM6zqm6nxPtCp3GSWDZhD4+r+N+97vf4MUvfvHg13/919M1P6jk9Qb93lN83EWTLyb0TAQR7uNmHJQremv6NwrVLssuqdPwUz/1U5vKsaqMlhnlK8/bOBuvI/qlrJA2k3azv1yE9BZ1Og0xPFFlBzllz5WuGF5bZB8Kg3jShO/Q/e1pHxCX7FM6lQ6mmfCJ0big+BANKI8xr+tA7MPQtfIufUs/dUR30iHhKVxj6pjJpE9okNt0wC53GvyUceqpp6bBityy6tdmINY1caJa9SVR0tiGtpPliFb9Imrk1WioAapCjRIrBbyXxGDybW97W/G06KCywWs8FzEeNVZ1cQtNUHh/SZOoaShbLesLJq27d+9OEw/0oj/l0XZlmj+LwDt9vAupFS0Ry7npjw3big8NEVasQ6D3vx772McO3v/+9xd3D5TbOGQPgnPe9RRf+MIXBnfeeefgO9/5TvqSp2ylymaITx3mpLSpQ8SJe1bLZGtVdppPEqvQO3gve9nLRnWHa97jywdXxEVeFSeropr0RfnJn/zJ9HxaWNXFHrFLJqZM7v/+7/9+pLNx5bMKdJk/lRlHJNouUld3zH4oi1ge0mfU6zQQRk4eZxlyU5W2SZBf8qQwFIdW+vqA+CQxXk3WYhs+CbRrhHGfQ/cfebdP+VynupDX/7yMpfO2SJfSJz8IdqlXwldazerQ26RPH5SIExy2s2krIgNTGTyTtHgt8It7Bla5eyAOBtIMzPSMv/1V5X4WEDcDfGCbVf6BCNI87s9WNCGfTGqiqb9Xp8EnA7k4KBWqzGqA6io3OmR73ite8Yp0/cQnPjEN3CPSdX5eRYxf1+PQBAUb0srfJKD7su3CZff46MYLXvCCdC4b0opR3ZdRc5ioMbGSrttM+Pgozq233jpa3TvmmGMGX/ziF9O5YEuo0kpcIv9gR4SVKwb25Cn/AJLyxxZXrQBBk/KiA4u2wDV2qEnEH//xH4/c8ANCnb2wBZQ0NOnMduzYkY76m41aBdePBk2gzqJrldW4vIJsUx9wyesntsOECvgBK9YdJln6I+7AZItzVttYBT322GOTn9ixa9LHNSiNVduF66CtpO0gDLagfve73x19QAme/vSnp9XZvC1bJZTXcXbYFPRIeUnyckPHOpfE51WCv+i3yarvskI5RBGydWRScv95HOPI0xTTE8Nsg+wkhqE4aCcnmRA0IcYriKuLVT4g/Zr4pdW+9EWXA/WDejGpzpYF8qj6ynnUt/SDyJ6aQhhRj7GNiW0J5xLdayJqa2Kbsw7ltRYMC7EXhpM1rGOTDAduxdPNH1TQ/egWGQ7U0n3I3fMsupXIT1n4s0YfSIiCXkSuo9y93Ma8INEdz4A8RjdRd3m4wwqcXlrnhXFebv70pz+96TkfXonXw4l0enF4OPgc3Yv65zxPIx9Nidd8eCR+7APJ3UTdlDGcNIw+liFyO4hlPWysRvnUcz4Qog+G6GMoSJ5nXrDWC9K5/mIcTcowdxMlonIh7ve+970jN/rQjD7kguhDJwgfndFL9+hI95E60Cd+cmI+CF/n+rCPdIjEj+Igz33uczddR1vM00descHbb7990wddYpiUE8/0cRuEcGJYMQ/kSfcR1RGI9/Oy4jp3E2Wcfca0RJtUmFXP+fgOdqqPp/DhGz1DqHdlwkv8e/bs2eRWHx1ClNayPMbrMjeSV7/61al8VO/zurcqUG/0gQV9gIUPJvBhluGgqnA1HtzRXhAG5cPHI7BpPiDBOfcIm+eEjfABh1L5zoFzuZXIP89oK4gT+6Gd6hrCjB+ekN0RP/Gitz5Re6hykf7U1k0Kfkm/9ImgzybljU5IE3qg3VLZEhbpnQT8RfuTDRIPZdsHsnni2Vd8lIZ8kAb00BXoUx84Il+yIeVvUp3VQf6Ik/jm9SGX2J+TDuKXqB61aWMIjzzJ9siT8kX4shu1DwjxI7puIrFeEB5H7mEv6K5pes1icgj/DDt0syZQ3MPGI8mwYUzCLzjDipye5fArFCsRCKsS/LHpql8BCYdwhw1DOhKmwq0KW2EinHeJ8qgj6UOqTF6/vCm/SlMXv7SyclL2XtlwAjBa9YtpTelFCh3m5GklnUhV2UyCylMS7WScrSgt49JDWMqvwlbZlIVNfglPtnLYYYcVT7qHFS2tzOVU2c60yD7++q//Ov05EeKRrqPOJQK9yBawU/SvcmgKK33xD8pHWHnkmcpzFZGdY4/oGn2iS+WZ6zooE7V7sa4IwksrHkV5QZNwQeU9KvehN1ZNFKbKG2kaZhNIP3lKbVFRNwlfcSFV9bsLiD+WC/GT3xj/JBCe8qTylg7rbJw0DAfqI70oTfhT29QW5THaDOmJ5do1xKk8KM6Yjy7jlL5VL6Qz8qf4urRbIB6VU4xTfUddOU8DcalMJdJxtDXZG9dNUJ5inQDClJDHeK8tpB0IW+cKVzZJmvuwSTMbetveaRYTKnIudcRKr0alDJ5FqWt4FD8NTGxkVg0mEVu3bh3lV7Jt27ZNX8xcNFQuKpsodchmyuAZnQZ/QzHayDhbAeJVWjj2gbZi7g1bcZFdu3aNtqf2CXphYBIHX0he91QuDAQ0oNJAToOCprAdmPwR3l13fT9t79R2Z/6eomlOtBkk2msulF0TGbm9t7j+wQH/MTxklVDbEAXQ56RITyofULg6jiOmI6Lw2qZtk7/h/wpfUtWGTkO0q5jmGG+X5GMB4iPukT3P2G67zl+E/KgN1pF7Ucfog/Zc7fo0SJcqR87Hico+SpmbeB5F8SBmOfGkb82IlbtJBVZjTUOlxruK2KBpkCr/VRB3bGBWEd5b4z0v6UJyyimnNP7C4qxpayeCfI0r9/h+7e233z5yV2crMQ1KVx/w7iGrr/E9YYR3hZmk9oHeTQbepXzHO96RBgSa+OmX1VivEJBOqDv6VVmTwKYTP/4kCvES5v3vf9jgAQ94QHqPkInfJH/yxBygyp4nYWiJxdl6oLoX2wbpU3bflrxdU3iKowlVaZmkXYr5GJ6lo8Juk6amEJcG8NKBULxdx5mHO9JV+PFiFVC7K5GepWPKk/ZbP+QhXZCXV9R1jp5FieT3mpyb5cLbO9cIijpvlNRR8Sw3BSq2Bp9siWAASsM1DsJS+BqAKp4cNYKIBrYcue4CpUHHvBHOIb+xUdaAuy7PXRHTmtKLFOWTk6eVdPatuyo7ESpH2QrpGofCbxqHwkdUNuvS+ch2o6AricBWkWgXdeUQUXkQPmUgO5PeVxHyKhtEl+QZHSrPTWwMXemXfelP5aLwEM6bhJeT1weFQ5ixHZgk7CpIP3lS3ZQ9KC6kq/amCuKNbUOeZ86bQvpjOSs/hEFYTcuaMFTWKmOlR+1SU5Q/pQmUHoXZJcRXZqPSKWlv0s+3QXqXkFcmuHyZ9L73u+/gsPsP+4vDhnEOr7uCvOXbO5U/PkrVpV7RYSxHlSWS2xhCGpraWkR5GulwGHYMH+FcMikKV7ah8JR+BF2a5WQ2o1mzEKghykWVvAr9nZ0mHYEan7wBQnLUsCCxwRyXFtM/KhMNCmQfkirqyjunylbGQfxKG7IuaMAi0eBSnbD0FvWj+rROepqE3K7H2XgTZMfYtQbuklh+08j97n/ABmQHdXVnGZEudQ4qr7blpDZD7Zv8xzaoCbG9EgpTcTQlz4fCRYina2Lec/0pP/n9aVF4MU6ds9qXymR4XERimUrUrjL5YhL2/bv2Ty41GWPbKv5AbUCs9xyj7TRFuoNoI7GNUTyKK5f4vMyN7nHUj7fxGXF4wrfceNK3RsQGTA3/WIbtUmpc+K9FI6UGKUoVqeEv0qXGFDHzQ/YRpdZWCpqUuUhucNbQj2xlknStAuiHTndcZywdohvVKQYjnE/DOuh52jzKhhENxjQg02CKsptEWJ3YdH3YgWvCV7mvGlGnQBlJ2tb/2G4goLDbTLBwGwWGKUphxgF/E5QXEfOLdI3iK4tTkP74fFry+BLDS91Pehu2T13GWUVTnZIeJnJpUjeUO++8cyS65pgme3cdWMFMZT/MBvFgG6r7qv8cuyhXlVk+4Yv9QpnENgSpeq72JrY7PPeEb/nxpG9NoBFDaJTUqNc17sNmZdS4tGmoop9x/vJGXxO+WXUA5mBkH7IVlVFdeeTlPK7cI0MLKeZ9zdzLXqKsI3S+6qTVYdPpcx9dSk+qU6MBSQ34jWURy77OBpaVLvMo/WlCoAGZyopzykjP2wj+JFzHclp18ryqzJqWl9qK2K5BLKum4CeWQUrbMDjC1MoVUofSkOdDYaZwO0T5jnHlRD0hco/oWRuRvpGyeGO4TXQ2C0gL7SUTudFqXiZM9vLVPeVPdTVO9hDq/jSoHITiiRO+2L5EO2orClvCtVkNXJJrghpWRA2tGpHYkMCo8hfbOpG25P6qwlD8pEcdjToKM3tkI1Gq7CRnEjvJGVpNcXYwMR3RVurStcrQGWtQoUmfOnz0QvmhozQwGR7bIL1K56uo55i3svxNYtP4QVQWDMSmHfCtK9KlziGWF/bdBLnN/RDmJANa/MS6BoSr+tYkXTFNiJg0TXUonigR3VMeEE1qJhWFk8dFHsvia6K3viENSpPyoQlgFOUvpXmYvVRu9ymf8HGvS4hLdkLYtC9cG1OHJ31rgBrWKHkjLGLDoYZlWhRGVVix8Y8yT7rI97IRy0BlImlLEz+ThI17pVFbqZB1RxMLhEGA7DfpqRhQNRlU5XavMpqkrJaFsnyhh0nbAPlFGJT1MYBfJ/KykC1iy03tUu5ytyqjtlDHJErbMPRRe1RXz6Aq7Xl+u0LpqooXuI8bTXh0zM/LRG1MLjHenBifZN7kupe+lI8okGxoONmj7b3ffTe/L8exj7IE2YnEmCa4N1oDaJzUcEnqSA0Jqy7837JBifFM6lcNqpkdsdyizdSRdzpN/clddD88S8cq5DZ1uvoIgG0lESd9mwajhb6a6iovT0j6XkE9kyfZFALKf66DSegqnHWmTIexzFRu4yhzq3AnLR/VMyaNKYxh0DGeuvoS3SIwaVrqUP2NceXEtMi92oz8vEx4Lon38zijzhUXfuLEcZ5o9WxT2ZagfOBOkz2t7PWxuldFVfqMKcOTvjUgb4AhNsI5asySDP9To43/OtTg5/G0aZgUn/ya2ZDbyST6l786W0nxDG1F7iXj0HOO924cSKvSaw5M/BisaMAi3Sa91ZSL6r2IfiWrRJ4v5T/Xw6Ssos5mTV4escya6lduFAZH1ZFJkX/VM0FcTdokpT13F/PaFUpPVVxRcnJ/uo734znEc1C4UV8xPrXjGj/0RZ6uMkiT2lGJJoACN2kr530PvFMn4Vr5MmbR8KRvxVFjiqhhRuoaJT2X+3ENsp7HX+pinG2JcZrZIH2rzCR61hSFgw1gD7lfrmUj/A1C2Qr3m8Qjdxv3DuMpJn4Kz+yvt/mv1Ag6a6Jnuc/9yv8q6TnqJKJ8I9MwTs+mObE8VCaySUkd0U1ZeJOST2KapqvqeRdpyhmlZ9hmxngVl/KQi57nUuYunuta57pWm6T2CeEZkKbYlnM+T0hnnMghMd1JDh1O+O6zeXKo/MyCUbkW5WlME9bij7PPsiIaY4wxxhhjTBnzmnqtzaTv9f/pAcWVMQd43Ue/a9swrbDNGLN6uF4bY2YBbc28pl7e3mmMMcYYY4wxK4wnfcYYY4wxxhizwnjSZ4wxxhhjjDErjCd9xhhjjDHGGLPCeNJnjDHGGGOMMSuMJ33GGGOMMcYYs8J40meMMaYX/vNbdg3O/8h3ksDj/uPJ6Z4xxswT2iLapVf+P58r7hiz+njSZ4wxphd++ME/NrjgZx84+NLuv08DrF95w3sHf/fONxZPjTFmPvzM//7qwbte87zBfz/t2OKOMauPJ33GGGN64a3/+enp+D/+y8lp8of868e90meMmS/8+OS2yKwbnvStGS//H/9fcTYYPPe/vmPwjJf8X8WV6YO4va1K2GYiZrHl5NV/8+VGW+ywDdISbcasDpRrtEPaAwmo/KN9TgLhEU6ZzWGL4+yria1SVwi/LU3rQVOUz2n1tcigM8SYJqhORFH9yNufvM9TvW5Tn5q2Wbhj18Gs+7ZxbYT00UX7oXGH2nJjhCd9a8zDjt46+PDb/1txZfqA7W03fODPR6scwFY3Xd9x+y2DR215aroPv/h/Xpi2nNz/f3lQLxNyBmw/9MAfKa7G89inPjOlVas1fRE7XvLsjqp/GBA86KGPHNkhQnuw9Reen55TDs84c3s6n5ajnvQfk00/+oSfLu4c4I2/9KhK+2pqq2zPoh61sZs29aAp//O//h9Jj6u6eqD2iDIzpgmqE3d+598GX7t5z6b6Qb2nXYAPX37hpm2W2Nq3bv1S6n/oE5vQps168v/24pSWh/7Elk4mWU2gfVL7WgZpQR9dtB8/+ohHJ52if2MinvQZ0yP/fsc3xza8n37/nxRn+1f5br/phtToM7Bi0tU1hEsH3BS25fUNnT+TEITO2B1Vv/ALOjaQD94pBwZmD/rxR6Yfgxg0TAsDnb96wyuTTTPIarOy1sZWGTCS7qa0rQdd0ecKfldQZmUTaNqj3GaM6QNsjb4HoU8cNzFTnWraZjE5VL9Lm8S7fX1DGuOEj1XGWMdIE2nv6gcjJsz+Qd+U4UnfGkHDwiTEzI66SVPqqELjHCc88/7gxSzjp/NF/FJ9v9AGPPhhRw5u/9cbijub+X//sJvVPXH9VTs3DWT6tKlZ/EAxDUx4WcFfdKpWIxZdv2Z1iO3EuB8BJ9me+eU9n9jU586in6Nfo39j1w+wohfzlY8DpoEJsuuqqeKQjSHF+cpyyCGHDF7/nx5QXK0f47YVlP3iv0687qPfnaltsJrFlpWyRjnfnhK3euCPDoMteGwDgXFbQWj4+TVR4FedDFvbNOjXljt+ZaQzlB+51zY4VoAOe8CD0i+IpD23qaq0KE88f+7//fYUVm5z5C1C5wjKA2ljBZDJCug5VNk2frrqRHNmbTNdwsSDMm+in3FlF/XOc8htB/LyyeMdVx+gylYVBoM+1QdoYufyW/c8Em1UcShutpYyqJNuo32KPJ1fu2nP4KFH77+epK6xOsEWLuKty0feFohc72XuyEveLim/QvkWZflfBpa5Xi862Oi3v/aVQb6VO7bxsd6pLkBV+8DqmfoEoB5944ufr+1vcnuObUaT/iq3d4Gfsj4wuicvnEe3Vf1fTIvqZdV4ra495hk63vLM56W2hZVO6SDXb9S9yOu8mQ7amnlNvbzStwbQoNGQaE89QkNAI1DWgJjZQwOv9wwQGmI12uoUaLjZ6sJzGv+qdx1iR6qw4qAR1AnxnAadzoBOiOsI9sFz2PtPHx/wjqI6GNzK/y+/5r8nN5HYuZKe//k7L0kdEh0KYQCDYfwrLKCTjANQwqCTis+B8NWZ8Yx8AnGUDdzN/ndM25KXHXqnTUHvosx2KOPH/YeTRmVL+VCW+Id8sFNFma0C4eg9GJ7RvhEfaOCS+6WORarCzlH6iUMDRAaw6CBO+KrALf6pt4T11hc/PR0jVXUt1yHlweoEq4ZN8ol7/PFMZUb7nw+kYxnyXOf/67b/ssk/A22VIfl+2OO2pmcI+Ztk9cWsPtRV6nwUtfERbJr2BnuibmPb6i8i1DvqI/aOW9VLKGuzgCNtkOxVEyLC1zPI/St+jqQntjnAedWEL9YPziNV/V+eFp4pLWX1q649Jp3/4fRXpDKg/mqsQb2O7RYT6bu+9+1N6cGvJ3yrgyd9a4o/4rJYMNikMVZnqIaYxl+NLx2UOjYa5iqYDNJQq3wZ3MUOAGjsNej7/ne/nX79GwedBZ3jng++Nw1CSYugQyjrFIhfHREdFh1R3jEyGMYvkzzyLXCHHyAM5YVBpXjIY56QjnqmbTrxwzhmevKyk97rwE7+9R+uKa7222GckOQ2WUWVrVLuhEG6GKzElTQmUNhK7jenTT3Avvj4jcBmBWEQVhfkda1MhwwEWd2ry6fS+IVPfDAd0Rnu277/SNhpYFwMRAXt1D9e+Zbiar/bfDXHGKBPor5GURsv6O+Y2GDfcVLIeKUNVW0WbU+sp/SnpIt61qS/ot5Qf3SfOgqxLYjk9SPWZajq//K0AHGS9tjONYG2BD9vOPWRKa+0H+qvv/31r6Sj4IckdhgI3NeNDcxy4UnfGkBnTYNCxecYz/lVzcwfGlb9uh5FE5o29NFIq8MmPXTKXaHOjq00hB8ndXVoAqxfYY8/9Yx0nERn6wIrxdB04jYNZXbChKTL99qY7GE/rAR3NemqgkEXP7bI3thi2Yet1dU1dMjATZO8cZBm3GoFk/pGmJoENkH9BwPvOEivGugaMym0S9ir+j9JVz8klLU9fOegaZ/GDz+4ZXIKfHAmTgIjTepH2/4vn6Q1Ia7a18EPSXE1kh+54iTQLD+e9K0BWvpnUKRGVAMLfpk184eBXNtfM6uoW7GYlrYrBeOgs8MuJ7VDbc+h4+SoX0dNObQFlB+/bFfBRKorymx63Cp1G9gGxSCOdmxWE322XY7TXR+U6bDNxJmvp+pHPlZOqG9N9cWgVPUqH3hroDuLHxDMesA7efE9vT7gXdicpj82arWNFW/qEyt5bAMdx7j60bb/00pjX+iHJPKG0FY3+XHJLA+e9K0JNDz6dZdfqfSLv1kM2CbCwEyrCMC5flFsA2HRcTIoFm3D0kATP4RF2vQuAb8G0tnF8KZ5j0fvmWkVoim452/A6YeMWQ7+lxkGKeiZTj2iX53LtuqOQ9tpZW9MErA3BjO5TXMd/0zJtER7KRvMdQ2TZuJkYjzNV/9i3RxX16p0qA+3NEGrCJKmgzjifMSxT0nnGrhqNV3w4yHlje2IadoCs97QfjOpyX94amJTsU5VwfbKvG9kZSvfdlkFdZT+KtanslU+0Co79UPQXwE/vqjO1PV/8U9K0O/WpVV1NG+Pm4Ce2Y6qvLXtC8zi4693rglUZv1SSwPAL2oeIM/ui200wDTYERrVCOUSOwgGVHxCX+81AINAOil1DnF/foTOKb5/Q1iUfxzoc48VQf2ySmfLL44xrYQPrB7GX/rz/MT3DUWeH63KCfLCdhXdI35+WSQ9nMcOMPdL2pnc5u8YgfLRF6vylb/8K21Rb03KjskDgzPZD/ewiWgLuZ2wYqR2J9qiwos0sdXcDROinDK/Md9VYVdBW4r7WO/yfOZ1G2Kd1DtDk9S1qKu2OoooDTkqU8IjHeRXeo06VjnH5xDLeJnw1zu7J29HQHaX203sy3KbLatPEMPP26iqNqusbcOO2/ZXkap+GGI7q/ojHcQ4qa/q/3Cn/i3WubJ2MjKuPY7PiEs/3grSxAfZ5CaiMEw3zPPrnZ70mbXGHf3ywi+j/KqZd0Zagexr4GmbMcsEk8aygWLV/XXF9drUUdW3MHnL/ybptOhHoqofZ/rAbcVsmOekz9s7jTFLCdvWyuALbV7FNmb/qmTZn+ng/jTbU43pG1bIFu1Dc2U7S4Btm7OamPUFE9f8T0oA9yf5gIxZTLzSZ9Ya/7q7vLDSF7e+ir5/GbXNmGUi38YL3q51MK7Xpo78tQlRtf10UvKtprPaMp1vuQVt8zbdMc+VPk/6zFrjjt60xTZjzOrhem2MmQXznPR5e6cxxhhjjDHGrDCe9BljjDHGGGPMCuNJnzHGGGOMMcasMJ70GWOMMcYYY8wK40mfMcYYY4wxxqwwnvQZY4wxxhhjzArjSZ8xxhhjjDHGrDBr83f6jDHGGGOMMWaezGvqtTaTvjXIppkA24Zpi23GmNXD9doYMwvm2dZ4e6cxxhhjjDHGrDCe9BljjDHGGGPMCuNJnzHGGGOMMcasMJ70GWOMMcYYY8wK40mfMcYYY4wxxqwwnvQZY4wxxpjeOP/889NXCzkaY+aDJ33GGGOMMaY3LrjggvSZ+hNPPLG4Y8ziccstt6QfJ04//fTizmrhSZ8xxhhjjOmVyy+/fLBly5biypjFY9euXYO9e/cOrrjiiuLOauE/zm7WGtuGaYttxpjVw/W6f1hFOfLII4srYxaPWdjoPNsar/StCddcc00yNIn31Y+Hpf2oL+T6668vfab7s4Q4iZsGahxyN4/yls3VpbEKfhU+7rjjiqtqcEc8xDdPtC1EQroieR3sMr3oiTCroPyb6FKUuececUxanl1BOhZ5600sY0Tl3KYO4q9pealckC71orajabiywXnXwz5Q3uryF3WGqK6o7k+rm3Ft4iRxqM1q2oc1cV/WdgD3jzrqqMZxNWGa9CwTy9AXTqtn2hjCqEPjrzb9kOplnR/cYaNN0rG0DGebK8+aZLMR27ZtS/rYvn17cWe9GWcbu3fvTs+RvXv3Fnf3g/7Q5TwYl64cpbGJ20Vix44dKc1bt24t7lRDHtFJE7ddQLrqUPmQrpy+7EZ6mBZsu0r3PKNs5oXSNq+6Nw7ZLBLrWlmax9k3fhVOUxRejANbiGVVpjPi2rVrV3F1MGXhloE73BDWrOph19Tpm7zhZlz+VNYcc/Bfp8dxjLMZ0SaOaGdN2o227iP4RSfT6iAyTXqWiSblLtAtuli2Oki6yWNZvYmoTUPq3Ar8yE6wmXHINpu4nQbCnxfzi3mGzFPBi0bTyrUu1NmGGozYUc1jYKNOUyhd4xom3CCChrJPoo66gPTW6TnmCV1QNn3TpD1BF6S9zG3Xeop0VcbYWpXu+7ajOkhbnzpsStQRdkdZV9XJqsEu92IdbYPagFxiPKRR98vqBm7H1RnKOg+zjPic8MaFuaiQz3GQJ+mzLH+UO/aA4K6MaesO/qvqpWgTB2kmP01tsK17EdOE30ltHqKtTZqeCGFUlde8ID9RZ23LnTz1XQfr2oS2EF5dOcQ8kj/yWUVMH/rETsa5z+0yxtU1pGVeeHunMWM4/vjjB8PKP7jyyivTlgm2B5x88smDz3zmM4WL2XDeeecVZ805/PDDU/oF6e4LdIOOZk3ME/vwF+kjAVdddVU6znIrYp9lLM4888zibP3Q9imErxCqHTjnnHPScTjQKH0f5KSTThocc8wxxdUB+FgA9XQSqNvDPjwJbRQQf/wAgb6YiJCGCFuYuqizbImKcRLPEUccUVytFpQ5OlZ5R4aD0MEll1xSXJUzi7qziPUztkvY7aQ238e2u0n61r4544wzirPmzLIvpB284YYbiqvZEfOYt2eRSexkluOleeJJnzE10InS0dMInHrqqenLTmXonQqJiO8daD+69r7TOMl91XsJuGVwduGFF5a643kMU+zbt28UNrJnz57iyeY97lX+Y9qi5NABqIHkuRpcDZAF18QhfUS34xjn/tJLLx09Q7eL9JEA0sJAkLIj71VIT7m8613vGp2jg6gH2ZpsQWXF+wgqR/SheDmvm3zmtilkH9K94oru8Mv9WAc4j+h+lLw8I4q3yp1sGMn1qzRKIk3SGonxQD6J4rkGQKeccko6lsEETEjXSP4Oie4rvirq3OV2FcuL+GhPgLpbFUYk6hRbFAyUYn7QZRw8rRovfelLU3mr7omzzjqrdCAa7QdBV4Iyoly6ahN1P9qzrqvKT8QybEKVe+7HPAITK7klHWqnOcftuLoscIfN0p7iLq+zbdIj0H3etyotqj+qNzF8uRW4wX2sc/F5LK8oZXnlPvaFPXEey6qq3IG+Rs+QCPHU2VmeP0R5j+CPtJFG3CgPuZ7blG2EcpX7vIwZf8Wwyvp74hxnJ+SJ+3neph0vkZ7oXxLLbyEYdl4rz5pksxEseaOPRdvOMC/a2AZu0V8ZbDWIOuWc7RhsJ8CfhO0D8R7+gHCrwgaexfC1XQEhPIWp7Ql6LohH8UW/SPSv9LC1gWtB/OO2lyh8If+6F68VjvwQdxnyk7sX6EPpBdzNwq5jGqqIZUma8KOyic9yHcitUFlFHXGNP+WfY8w34SN6xjl+Yrw5PFMYsoVY3vE5UDZ6rvARueEY/ceyUfiEUQXu9Vw6kP4Ih2vlJ6YFeK64QOmL54jccIz+I7hXPFWoDJFxeRJyr/jlV/lTfpEqSG/0I/dKa16GyrfSx3OFQXqqwL3Cxp2uo34VDmEqb0rXMkG6x0HepCvyHO2C+9IJz3L9SO8qW45Rt7gB6Q9dliE/uXtQmSNKp67jvZi+6Cfaktzm1LmXnUXdcB7tgefkgzQoLLlX/qrATwx7kvTk8Ez6IAyFF8uQ8Lgn8KMw0af8qJzjc4jPFEeVjiHaDEgvZeUOPI/xSbfoR37L/PMccK9nwHkML4cwo3vcEp78KP54T+moQmFI7xxjGohP6VW5V+kw9xvLFb/yL5vRcyH9cIx+kehf8Zfpk+sqxj3rm/nFPEPmqeBFI69Y605T21ClRlTRI9JrLmUNDNCA0QiKvJHK4VksMzVEamSAa6UN9zF8wL8a6jr/eXqU/yrKnueNfN5RlKUhUuee81yi+74gnjrysiRd8hef1eWxqpwk3M+fg57jH4gzT5NQHJFoK4DfaH95uuueE36sN7n7CO6i35xxtjlOH6QJ6tKaI/2MSy/PYxxtkF+VleJDytDzmGbi5V7US4T7PI/pwz/3Yrnk5OHm13la6nS1yJDucaAn6UplrjIj/7I5zsvyH+1E/tBnLEfpL7dfUede9h/LNL+O9i/3Sg8QfrSTSBP3hC/7kPtc9Jx06Bykoypy923TUwbPYnnVlQHhxzxAHmdMZ1sdQ/6cc+6JPI15+IB75avOf66D3H1O2XPCiDrJy6qubMelQenNJbqP5HHn+QWuVS9wS3wRwsjjr/Jfp98cns0Lb+80pgaW53mHY1hfRts88yV7tjoMK3pyE2Ve2w213Sxy9NFHl94vg3yyPUL5vPbaa9O9RUHpyvU963ctm1L1fh+2RJloK9B11103GHYetXYz7GxSftmSUgZhDDuiRtvsbrvttuKsP4Yd6OCyyy4rrgbJtng/qoxhR1mctWecPm666abiqh3oEF2TXm3ZiduU4rszV199dXFWj7YMiabl0La8iAN9w6Q6qEJp0VavE044IV3feOON6biqaBsn28gox3F1VtvVaEOnse1lhPqIbmIbjSzjH77Wtj7actqzpmAX6k+Bvov68rSnPS1dT0s+FhHovWk9ZMuytnsD7dhznvOc4mr+0M6gw9yO4pb5aZh2vDRpPz4PPOkzpgb2kWvQrs4qf/mbCk5FXyTKBqCkswkMdOnYeN+Ijo4OYZE6ajWmamQXHdLLRI2OP3Yk3GdyxmAZPfOuhGytDfH9A9F2gF81eOgCOmfyTh4RbKvqRXxsrmlnW0WZPujEp4H0arAB5IOBIGWoQSB5rNJjfLcEv3ysQWG1QR9JqdMRPzAQDxONvn6wiR9skW6QZRzUt4V6S3lTjlWTAGyBASE/CHY1QF0m+DgGdtpn2zILeD9Nk9dJBvIXXXTR6L1B2remP8i1oWz8UfbxqDJo22gjSB9CmS2SvdLOaNLcF9OMl7rqx2eBJ33GVEBHRQWm8saGnkEUDVB8kZdfyqjocRLCakDXnR3h5S8ml8FX5EhjXJG4+OKLa78uJ4iDQXIcyDUlxtknDLS0siDyl9MXCTrWfHCIvTA5i3ouG1RoEiPdMpCkjBg40FnH1WfCpNNuOtDX5Cv+kMEAhTCijcdfjfUif/4yexVMQKg3yuO4AYXSE1dFyVsTuxqnjy6/akhY5EMry+RH+mZQFyEdtCNaEZSN8ku60tiGOFhUe0PdjmAb1H/92kz+xzFpvYlpUfmQp0Wuh10R7aluAK8V0bIfI1YZbI96wQ+nkS7so+t+Brsd17fGOvS+972vOGsG+VfbhzRti6jfquNVoGP6lTj+IC/U/7PPPjtd14EuGcMofW12zHRdDmVQv2jL8p0yTeyoSfqmHS+h9yb9+EIwTNzKsybZHMuOHfvfxchlOBArXKwn6KCMYQOzSU8CfcX7SNzXHe9zrb3dEtzG62FjnfaT65p4y1DYPM/DyK9xC2Xuqu7Ha/zneZGQ3jKiXshz7h9/8TqPEz+Rpu6j7uL9PiGeKvJ8l6WHNIs8X5LoJuZR4eMvMk4P8VkMN5LbNfqPtkh48Tnp0PNYVwg/L7vcTZRx5RXdKa6YF+7l+lZ7lutDNEnrNOR6QpR2EcucZzGteTnwrIyy8tI5Ohn3XLYT01FWDnlecp0Sj4j38/wuC6S9img3MX/ooEyfEsoh6j63tyi5/7xMcr+5+/x6586dm65VZ+O9KLl/4ovk9lDmPtpItN08XvQS3fK8qi5HYpzTpCeieElDHobKoKo+5fnK4+Q5RDdRyvIICp+wdC6pSmPuTmE38Z+7kcQ6Hom6z8uS81wHdWUb9ViWZxHvxfs5MY95fvNr5bHMXdX9eI3//J6EvJTBs3lxCP8ME7DS8CvrGmTTTIBtoxx+8WRlIv+1il/CulwxWUa6tBn9MpuvFFTpf1mpshvbk1kU3BeYvlj09s/t83S07cfn2dZ4e6cxZhNsDWF7XA73u/4QRBewxYNGlPQtG/n2VMFHT1Zpwlf2vgT3u/qYQRmyi7rtUasMgw50gPQJdU/xLGM9NKvLvPsH4i/rN7lf1s/OGtpHtobmLGq7ySsFTV8rmBXL1I97pc+sNbaNchgs5h3S1q1bF/brmLOkS5uhYy3rMFbNJnkXg3cmIjt27PCvyD0T63GfNhXtePfu3bXvuC0i7gtMXzBJyd+r3bVr1+j95XnDD3D5xG/btm1r8UGmLmjbj8+zrfGkz6w1tg3TFtuMMauH67UxZhbMs63x9k5jjDHGGGOMWWE86TOmB1ju59cc9u0b0xbZD+J3pIwxxhgzLZ70GdMDvL/E8v06/kFeMz3YD+98YEOr8kEXY4wxxswPv9Nn1pq+bIPVGQ/WV5NZtCe2H2Nmi8cJxphZMM+2xit9xjREnz+vA3dHHXVU+iKWMYDdSOqQ/SzaZ6nnCXWpSnd8GbSJXqtoWq9nRdzaG6XsGXk380FlMcvt14qTY0T3/TqBMWYcnvQZ04D46fM6+Nsse/fuLf3bN2Z9iJN+PmPfFOwM9/yJDOxu3Sn7nLhgwK2t1JPQpl7PCv7cQZ4fXfOMtgWwEX9SfT4wyar621x9ItvI/yTGhRdemO5z9DvAxpgqPOkzpgI6T/1yyt/T4R2rOhhEXnTRRWlrHp2wV/vWk0l/ccdesDMGdQzozznnnOLJ9LAqtGwrAax2xglfvsqxZ8+e0SRoEprW61mQr+LEfMVV31NPPTU9ywf+pl9if4Du2/yQ0yfYy/bt29M5fc6i2LMxZvHwpM+YCs4777zirDlbtmzZ9C7Woq0imP5h4sYv7pOAvcQ/2Msfw+/ql3smkSeeeGKaWCDL8IME+Wcgyx9yh3yVA10t87uPlK3KQ6s1yh/5Ur75w86UF5OOSy65xO97zoFJ+oNZcPjhh2+qE+5zjDFVeNJnTAn8ss62MQZi8dd3oYFa/k4NKw96huzbt694svndIT3P/TOo07MoZjlgYK6VKY6UXT5pkx0g+fbNSy+9dPRMfhngx8kBtkk8uo5hRHdRtFLEJImJBQJ6nqdjHIob2+Vc+dNKlUS2HdMK0V1eryKxLpQR9VgXFsTw4spZRM/zejkuLj0DPc/95xA/7li1U3mUbdU888wz0zZfwJ6OPvroTT8KRBQmovTFdJP/qAPcxLLh3JSDbsf1B9K97GqczatM8nYBm5Ebygli+cXr6Dfvc/SDgNoC4o5hG2PWmGFns/KsSTbNBIyzjW3btm1s3769uNrY2LVrV3IvP7t3707ne/fuTdc8Hw7Q0jns2LEjPcdd9Jv75whyL4g/hmcWg1hGOdgC5YYbylOorBFsStexfLnPPWwFFE60L4VB2LpWGLjTc87L4qiCuImvDuUPFL7SRzzKs55xBKVVKK16npOnB7fRP+HFfMW6VkZZeEpr1Cvk+RoXV/Sb+y9Li9wr7CZIV0hVWeo5KH2KQ3aFEL+eI5wrvcg6U5d/7Addiqg3dK1yUrmrrEV8Tlhl9sG9vIzz8BSf7sU0cY5/xSVRGJzL7o0x84F6OC+80mdMS4b1Jh3ZVgNazeP9K7ZeCX6lH3bu6dfh+O5Q7l/cdNNNyb146UtfmrZ1meWhyba7+LcbY/lqSyhbhOGYY45JR1b/IsNBXbKtnLiqTDpkX8SRryoIrfyw7bPpR0FY8WDFgS1l2LLyzFZM0sWzaT5yQVrRBe/GiuFAtTjbz7i6llMWHunOddhXvY5opZUVvklWXbTNM4K+QW0HX34FpUsMJwSbVgmr7Mi0YzjBSnVA9eC2225LxyqoG5Rj3JIpdC/WV4UXbU3w0TDsUKt4nKtNIV0wnPCNwqXMjTHriyd9xnREHMALBu5l98tg0MaAWh3+tddeu2kSaFaXqkkZ3HjjjcXZeOJkg/A0aWGgFyejccsYkz0mIXEyMA7CYfLAe0P4j9sYFS52qwHnJMTJaxVt6lqT8MYxbb0uQ+8qqhy0LbAMfbhFA3a2eUZ7ka5pOwhL73TxI1IXKI1V4m2h7WASRvlXce65545+6KFO6UegMrBBwsOWosT6bowxwpM+YzqEAW9O019X+TWWATW/1DOY4ldbf5LdaMWvDgZ6DPgAG2JFAdvTAFPv9WCjGhw2nexFWKnEL6tvTDRYLWQSwmSDAWhcyZyGusla07qWr9xNwjT1ehwqh6uuumo0iYrvi1FmO3fuTGWLG8FEUGhlj/QoPKSrcohhlolXC7uFekTbT53SKmIVlPl1111XXBljzHg86TOmBjpfbaEaB4NgOuvolmsmck3AHx9qiAMqs9zogwx1aAUNNDnRCt/ZZ5+djk0gPraAyX7iigI/IHBvmskAdUGrewz2822X2orGxyXK0AqVVjKYmOYfxeDHDwazZ5xxRnFnMLj44ovTkUkRtKlr6JYV83zLadOymbZeN0ETdkRb8Vj9Y4u3rnGj7X2s8KgctBLEPaURnXoFrh+a9gdC9j3O5iOyV74Wqgl9FdgHK78xPMpd9cwYYzYx7GRWnjXJppmAcbYxHOyl58MB6KaPHyDDwddB19GPRC/QN/Gfu5EMB5cpDLMYUCbjoMxVdrILXSPDAd1B14Kyjs/2Fh9s4Bjv52HgL3cTRXbYBPlR3BHuxTRSN0S8H8+lA9zqnmx9XLrkFlF4kaq6VkWuM/LSpF5CVVxN/bchD1P2Ee0qCpTZB+TpieWC5DqRv3WE/I9D5YIdl5VzvMYttLV5ofAieRyqn7m9cJ3bSpkdyI3SaoyZDdS7eXEI/wwTsNLw6/AaZNNMwCLZBr8e53/nD/jl1luoFodFbk9YvWIVKmc4+Bz7HlGOVg60ymTMquNxgjFmFsyzrfH2TmMWALbjlP1RXe539UEGs9owUWPCR2cSZceOHa3eP6NDIhxP+DbDjzLoxtsmzaIh22yz7dQYs354pc+sNYtkG3TY+cSv7QqN6Z9Fbk94z4uPq0S2bdvmDwIZU4PHCcaYWTDPtsaTPrPW2DZMW2wzxqwertfGmFkwz7bG2zuNMcasLdoahxhjjDGriid9xhhj1pbLLrts9AeujTHGmFXF2zvNWmPbMG2xzawWfCwp/2KuWT9cr40xs2CebY1X+owxpiP4siMNep0w0eCjK7oe98eaAffR7zxQeieNP26jbPKH0eW2TjeRqCf+uHkdlBd/AFt/6NwYY4xZVTzpM8aYDuFrmfyKF3/J2759e7reu3dvcWfQ6oua5513XvrTC8ill166/2bP5H+a4IYbbkjHffv2pWNbTjrppKSHJjApxC35Lfu7gzlKKyt2u3btSud1MEE866yzUpmQtzaTS2OMMWbZ8KTPGGM65KKLLirODoZJCROZNjAZOeaYY9If6Ncf6e97gkL4F198cXG1H/50CBPXvv9+n1YSL7jggpTfU045ZWx+m6walsHkmXf5KBPydsYZZxRPjDHGmNXDkz5jjOkIJil174c1cRM5/PDD0wRIcM69vmDSdcIJJxRXs4eVxJhfTXTLYIWvyUpgGWefffamCexVV11VnE0P20UnnYwaY4wxfeBJnzHGzJnbbrtt9C5aPlnYs2fP6BnCu3GaNPLeWryv8zyM6C5K/n4e17zjBmx5xA0Tq/z9Q0TXmuDE502IYUaYiMX0El7Z6iLpYnsmcMRtnh/cxHAibJnVM0Q6bZq36C4Kfti6e+KJJ47uafupMcYYMzc21oA1yaaZANuGaUsbm8Etsn379uLOZvR869atm6737t2brnft2rXJ/44dO9I19wF38rNt27ZN1wqDsKOf/HmEe4pTaRLyt3v37nSttCD40TXpqIJ8xHB0jV+h56Awq9JKXLl/pV/3dR3TJX/Ki3QkFC9Sljf86TmUxRHJwzOLh8rSGGP6ZJ5tjVf6jDFmzuzcubM4248+lsLfkANWjUCrcOecc046RqreJdQHWI444oh0HE5w0pEVxJw2207FcKKTPtLSBj7SElfvbrrppnRktRIIE5Tf4UQpHSN1aSWfcWuo9MBq4JVXXpnOlQbpJF+Rq8obK7Mgf9Ktws0hHcP+Nsm1117b6MuixhhjTJd40meMMQuKJio5VffL0MREExX53bJlSzouEnuLr5syeWJb5Mknn5yuNSnsgnFfH20ajyZ50qV0q8lqTtxmygSeD8cYY4wxs8STPmOMWTI0kWsCEwwmI0ygmHQAk6tJVvX6Rit75E8rY0j8sEufHH300cXZeFgh1ARVk1N0HP8MR3zHEpSXtquixhhjTBd40meMMQvKJZdcko6aYOio+01g8sGffIiTqKYTPj5Woi2Xs0Crj6ygKV7S0ORDKE2/lsmETSty+vCLVuzGfSk0hw/B8CcfpNM44eNjLmzj1LM24RpjjDG9MOyQVp41yaaZANuGaUsTm4kf7ogynLQVLg58TESSXwt9JEQSPwSytfgACcJ5fp27iUIaq5Af0gR52uKHTJD8eVnYeT5yP8oXOor3lYYyYjrwX+Y3XscP6uTPRJO85W6ixDI2ywNlZ4wxfTPPtuYQ/hkmYKVhe80aZNNMgG3DtGXZbIYVM70bl8PK4SJu81wGWM0r+3DLcJK4adXPLAfuC4wxs2CebY23dxpjzArDhC9uQ0S4hkWd8MW/gbeIMJFmS2jUKcJXSdlKa4wxxiwanvQZY8wKs2PHjsEJJ5wwmkQhXDNJWVT0NUzI/+D6IqCPsUSdIjCrj84YY4wxbfD2TrPW2DZMW2wzxqwertfGmFkwz7bGK33GGGOMMcYYs8J40meMMcYYY4wxK4wnfcYYY4wxxhizwnjSZ4wxxhhjjDErjCd9xhhjjDHGGLPCrM3XO40xxhhjjDFmnsxr6uU/2WDWGtuGaYttxpjVw/XaGDML5tnWeHunMcYYY4wxxqwwnvQZY4wxxhhjzArjSZ8xxhhjjDHGrDCe9BljjDHGGGPMCuNJnzHGGGOMMcasMJ70GWOMMcaY3jj//PPTVws5GmPmgyd9xhhjVgIGlccdd1xxZVYBypNyNcvNBRdckD5Tf+KJJxZ3jDGzxpM+Y4wxKwGDyp07dw6uueaa4o5ZZq6//vrBJZdc4r+ftyJcfvnlgy1bthRXxphZ4z/ObtYa24Zpi21m8bnlllsGRx55ZHFllpVZlqPrdf+4Xhozz7ZmMPj/AYLTE94OmgCeAAAAAElFTkSuQmCC;" parent="1" vertex="1">
          <mxGeometry x="-310" y="-160" width="831.99" height="150" as="geometry" />
        </mxCell>
        <mxCell id="rqF0E4ZXU8l-zSK0DjSr-5" value="Role" style="swimlane;childLayout=stackLayout;horizontal=1;startSize=50;horizontalStack=0;rounded=1;fontSize=14;fontStyle=0;strokeWidth=2;resizeParent=0;resizeLast=1;shadow=0;dashed=0;align=center;arcSize=4;whiteSpace=wrap;html=1;" parent="1" vertex="1">
          <mxGeometry x="850" y="30" width="200" height="90" as="geometry" />
=======
          <mxGeometry x="-970" y="-220" width="120" height="60" as="geometry" />
        </mxCell>
        <mxCell id="rqF0E4ZXU8l-zSK0DjSr-4" value="" style="shape=image;verticalLabelPosition=bottom;labelBackgroundColor=default;verticalAlign=top;aspect=fixed;imageAspect=0;image=data:image/png,iVBORw0KGgoAAAANSUhEUgAAA30AAAChCAYAAABzntZwAAAAAXNSR0IArs4c6QAAAARnQU1BAACxjwv8YQUAAAAJcEhZcwAADsMAAA7DAcdvqGQAAFxuSURBVHhe7b0J1GVlee95wIGkHZJgFAdQg0EpC8E49L0ruZGYhCErvZzQwmDn2oJGVueqATQrbWH6Zgm5yVJAb1wJRgrNjSkF016TZRIo2ihqoknjUEQsDQmohSKopcEhCMjX5/fW/p96vrf2Pnvvc/Y+4/8HT+3pHZ/3eafzvnt/h2wMGRjTkGuuuWZw8sknF1f7mcaEbrnllsG+ffsGxx9/fHGnPaeffno6XnHFFekoCPuoo44abN++fXDBBRcUd+eD9LZjx47BmWeeWdw9gNK6a9euwUknnVTcrabM/SLl1xhjjDHGLA6HFkdjamFyxcSFSZ6EScwhhxySJjWTcOmll0494bvyyiuLq80wIVqUCRATs927dw+uvvrq4s5mjjzyyKTPNhO+HMLYu3fv4MILLyzuGGOMMcYY40mfacj555+fJldMKiKsWjGxYjLIZKQtZ599dnE2Gazubdu2rbg6mEVa8WJye8oppxRXk6PJXRk8Y3J5/fXXF3eMMcYYY8y640mfaQSrR0zumFTkaOLGql1bysLrirJtlPOGNE0yOW4Dk8tpVk+NMcYYY8xq4UmfqUWrRkcffXQ65mji9r73vS9t82S7J8LkBtF13AKqexIh98TJ1s38eR1yjyi+yy+/PF3r3b8c7rOSGdOeb1fV/Sj4Oe6440bnwJFr7hOv4ox6YGsm4ZNHrkHn41bo5AZh66qI6a7SufzyTGnmGJGecsGPmQ1s8b333nsHP/jBDwb33HNPpfAct8tKzGee17vvvnskMb8IfhD8L3P+jTHGmFnjSZ+p5bbbbktHBlkMvBiM3XXXXZsGZlu3bk1ufvEXfzFtLxRMCPPBGRMjtmTGgRsTDiYXelfthBNOSCuL8XkTcE/Y+NX7cayucW/nzp2jQaSE+2xbZSXzgx/8YMoffs8555zkF5gcKS3aVsm7jGwd/cxnPrNpeyn3eAbEf8MNNwy+8IUvpHzdfPPNSV+f/OQn03ZY4nriE584uOqqq1J+gXt5GpFPfepTyY3C+Jd/+ZeR+2c+85kpTMDtwx/+8OQGeC6/QDr+6q/+avDFL34xpU2TQo5nnXVWyh/5JL/A+aSrsQzOSQ9pkb1wTZpUrmY/6AQdRUFf0l1+T/c54nfRobxJZ8xPno/8PF7HYy7YFLa2KJTlVRLzNY0QhvLdtC4pXbFOlonSKMF9LrkbpCwc3BKn63s3xDaV47zsnvIk7jb2NzeKtEa7zW01itzUiWx7HmVAnLEuS8ry04XE/LouLzee9JnGUOHLGgSEhgChccDdOJgY8S6eVqQEkwtNqpg4aouiJpRNYcLCJI7wSROTqt/8zd8sbRjf8Y53DE477bT0/HWve12695jHPKYIaT9Mjk488cR0ThqZ5N10003pugr8PPrRjx684hWvSNteCf9hD3tYCv8JT3jC4I/+6I8GT3nKUwZbtmwZPOMZzxj8wz/8Q/JX1XCTH/wojJe85CXJPQ0x1/iD6B94TnwK/8YbbxwcccQRSUANOHpHz5rgaSI7ySofHVJVPqKQtnl0mIuEdJULupFQnyS6V+ZnEXWJfZWlV/lAYr5iXiW5GyQPD8HNvKEMqtIX78e8NJE8nCjkW/W4Cp5Lh3VpiHEhZXU3d4OU+dV9ROmUoKtYrnK7CHastHGs0+0sIA3SUa7XWeqrLB1Ky8YClFvOvcMyvDtLr+xX+ssluq2SMnezKocYd14XYz6mkTzMGLbqhVlOPOlbMuIWv1ltv3v84x+fjnx5MjYGanBYNfrsZz87+OVf/uVR4wBVnaUme6eeempy03ZSVweTRSYtTLZIy4c+9KHBscceuyntiAYw6uA5V6NGutSwMYm87LLL0jmwMqhJYBn4ZQXve9/73uBFL3rR4J//+Z9TWDFuVuOAVUGupTOO0Z0E/ZIuXefuy/wDR5WTrhG5VwPOyiMTVW0vve666zZNApsS0yhR/NJ3fEY68LOOoPdYXpxLHzzDjnLhPs8Ruc/1uSjktqC8RSE/VXmNIncS+ZcOoh5wPw9Il9IR0xUl5n1ayXUyjtxtWXi5xHRLt2V5K/MriXGWlSOCO4UTw5wXSjvpUJ7nmR6IaYllIB3OAuIhbrXjB7XnRXoWBdJyz7DcRukrRPY1jaQwijKQKPw+dZDHF68lZemdVshTPM6rjTXT40nfksGERgMhyaTb75pAJWeCwkrVe9/73sGXvvSlgxoZbRF88YtfPGoYoKrxY7LHZIetkX2h1T5WDFm5U+OVpx0hnWrMdA06sjLJRE+TbMJu8qcVFCZl9P73v39TnNyHqE+IbqIQBquL8R7EPEHVc8WXP1fesSHKhG2g5JGtnqyQtoEw1fFVdUhlQtqk63WBPEc9SQeUc4SyOPTQQ0e2JwHc4i+GJcnDmSXkI6ZF+SvLY56vOokQjnRAHIqPgSjXs9YBeZMovzHPZVJGnbuy50gdudt4nUtZPnJRvmL+cuL9snPFo7h01PmsUfzYT5nMgzxN0k3UZ98QD3GrPt+juq0j6SrStiiQFon0hqA76a+McTqVzpF7kVA2sf3hyP0uSXEW8eUS7SFKGWXucomUPcvdmOXBkz4zFjWQesfrSU960qiRQd75zncOXvWqVw3e9KY3pS2Degbf+MY3UuOg9/FYTdIEUdsjWfVjhalrmBy/4AUvGDz96U9P77yRpthIxjwA6dR9NW4848jHWPSuG1L2ZyD4iI146UtfmlbmiBv3vB/4uc99LvlTHH/6p386ePazn32QzsrSibz85S8fXHzxxYN/+qd/Stcf+MAHkvvnP//5g7/9278d+UfnPCd8QAe8q1gWPiifrPBRJsoj0ubHBHV66vDSwKDoaAk/iuKPHTGyLpBXDRCijtA5MLlhonef+9xncN/73nfTEdEkEFR+MUyJwpsVxEe8cQWgKn/Ko/KpPFaJ3MT8l+mA+BS/0sCzWaB0ROFeVb5jPqLE52Xu8ns6r0Puo78y0XOR56kqX1EUTh4mUkaZ7pBZo3ixpSixrZo1ijfqJdd930gHSKrXRZo46r7uIfMm2Wcoy6S34bHMZmWj0Wbj8yjRnZDtEg+6iW0g0pU+yuqI8iPydEYZ9ywXuc3dx/tmOTlkaDSbrcaYAhoVNWJq2Fk9Y4IXYQLCVkAaAg3MWCliZRBYQeKaL06yQsbEjwkg4A9hJe1lL3vZ4G1ve1u6D7iXO2DimU+4mJDhF9jSybuCgg+YcP3a17521Bkh0eR/7ud+bvD5z38+nT/rWc8aPO5xjxtccskl6RpwzwSybGKq9w6ZMOlDKcBWUCZoH//4x5POCINVTSafgrje+ta3pnMmiL/wC7+QzgF9sj005/d+7/cGb37zm9M5E23O3/3ud4+2mjIx/Mu//Mt0Tvznnntueg4vfOEL0xHe8573pMmgIB2PfexjS/+GYK7TMrATdXDkN3ZIZc2LOg3Zigb297vf/dL1KqN6JLuQnqQTOlbpJXa00qV0K78xDJB/dCmZBaRDeZLEslfedIznHOWmCuVfIj3oXPeBcGI80cb6grhjW6n8Ky15eSJtUN6EwlCYCnccsVzy8ISeRduSfkVZvGXxc527FYojjwfwozKblf0CaYp93Sjfw2zd59AD6ZllmuD73//+prYV8jqe675rlAZNYnJ7iOUlmSfoibTG+ghKqyTabcxTJUM3uMItIhvRuSBM2bx0g0xTTuRBeVKdifEoL1EmJddFDFN5miZ8Mz886TOVxEGMGk7kK1/5yuCpT31qcsPkgglF3iCokZtnB/A3f/M3g4c85CHpfT6ln4YyNs4R0q+0x86Lj72U/c0/VjDL7hM+elNHLb2pc5gnKifyiSiPrERyn0lshAk6H5sZt+pHXuPAJOazLL9KgzqqXN+rCjagOiVbBOmC8tBRwrOI7Fc2lduXwpJO73//+6dw+kTpKKtjsayVv1zyPFYhuyJsHWN8uo+A4kXUHiFN42sDcaps0YPSQlyxPJXftmlQnkB+FQ5hNiXXUQ73pcuy8gTpVPnhGNMR86b78Z5QuMQhkc7wQ1lhv2V++4D4775nWH53H7DlPD2qU8pr36Af2lXaV9Kk9Eg3s6jfpIH4EbVdEdJDGlS/1I7PSkdlpLIcplV9kuxX5SjhOtpXVb2I4AaR/UbRMyDcaDsxzkkgH3HSBwof/as+Kl5EbprkKxLdx3CimOVkfrXSLDSxIaOBiY3aIx7xiDTxY7WK1ST+OLsaOyT6lcwDJmX536KLjVmOnikf8Pa3vz19wCaHsJ/2tKcVV+OJ4c4b5S2XJz/5yYWLzbBqWbfNk/LFRiRcK9wy9CzaR/S7ipCvOCmIeY2DAg2YOC/rWOVWbhB19iC9Ej7xxAFPHxC+8pTni/RrQKK0Ku0I99sMHhReWVicKzxEelC6pHukyi6nJQ9X6ZUOpIdYdk1F+Yx+CU/l3pSy8igTpRf30mmUsnwhed54hvsyFEYMF6RHleGsIL6Ne4dxbgzbJGQYN/KDew+0TZJZIR2ktBUS9Y/0Tcy30iLyckPkbt4oPRKQ7qLNyobjvSaS10n8y55BulBbrPZnGt0oHyLmR+mPaVK6dN5U8rwhef7McuJJnymFhkqiRjxvcPg6JpO/n/iJnxg88pGPTFsl1cDKj8KYFfrj6Mgb3vCG4u6BDqCO3I3+NILClEC+KjaOJnHPkjw9+lt+eT7rtnYSjmyDY1NwLz+5rCKxPiHKJzrOO+smAznclHXIEPWq+PqAAYwmVUhZnmK+2uSvDsWRh12mC/I/q4kfqO4gpEMS07WoSK9KK6K86LnuI3KLyE0bYhwRtQ99llPOKM7hxC9N/oo6pHPV21mmSWnI41U5TKLztuTxK06OeTqkwzy980LpEUqv7HsSYhhlbZzaIOkEXdzzgwPt5KQTP+VDR8KPaZEoXmPK8PZOcxCYBNsItDVCAzru15mLGqK8QVRDOEs0wFND26TTVrrVgE+ylYc4iC/qj7gXpaqpo5g2n0C+tPWH/LbtzKKtkAalZZVAR7E+SUcx35PqH5uKdi4bz8v4/kM5tMP6p/iUH+VJ5UncHCWT5K0t5F2Sp410Iegj2j33uiCWA/FznZcBelgWlB/pkTwJ8kGe4nEaKB/Fxbl0R7gqp76J5RfzzX3e6RtaT8or9fSwww5LMgtoM+K2SumF+EkLaeoT8p+nQeWDbXOMEuv9PG2edKpPUjmqLqr8SG+XqK0hbiTVm3uLH/gwo2F86IM0yK7bpAH9kx+OyS6HEJbC69sWzGrQf09slg41XhIaGEkd0a380wBynCeTNPDTdgryz3HasLpE6Ynpm5RY3pMS7WXasBYR2b/yB+g8Tgg4nwTC0QCCsBhUaDA2jOzAF+yG0hUaEKdBTajbGvCRDk1kp8lbW4hbcUof0oXsSoMxSdcQVxTilywTSnuenyhd5UvhEGbOrNoC2UdpfMWt6KbUXQ+UxSdddaH7OtRuQSx36prqemx3QOmVv0Uh2myZrU0L4eZt333vM2yDDjmgF20VZuWP4yQo7bE8pHtj6rClmINQQy/JO5061OCXyTypa+jViE6LwkHUIEeJz8tkUmIYZfHENKiTju4moa1t5Mj/ItlJl1RN+PIB0zQQnsJSeNwjNv6WFGmQTAthxMlezBO2pAkXwvU8QAdKwyZ9FHamPPQ18RPEGWXZKEt/bDN07II8HrULKrO+kR3XEdPVN2o3RNS5yqFPVFc4kl/ije1WFNUxBLdKe0z/PCFdIp73AeGjk9j+qKzQTZr43XOgHZ0E6VrSty2Y1cGWYjYRG2t1bsgkqPHXEZk1NIhtmcRPJDbEEhr+cSJ38isZR3Qnv4qrLk7FJ6mLq4xYrpPaCOBXMi876YtcP+g5lgODgi6gDOMAQ+U50mkxeJuGfMKn8JQn4pfMG9KjQVfUC0gnmvRNOvAaR6xPk9StRYB05yLy62nJw1MZcVTd6ZOyeJSmsnzOIk0x/zEtarP7hDhj/VB+iTev61zH+gVKt9qIRaGqPPsg6gjdHHLo/njj+6Iq42mYVX7MauBJn9lE3hhJ2hL9xrDWBXXM6hBjBxk7A91Tp5k6h9Ax1TXochvjKosjl+gWv5PQhZ1E8K8wkWUn6gVROfFuncpoUt2XkZdpsp0iblb8VFaTgF8Gf3HCF+0u2taiQLqqJn7Kg/I0qV7KSHov4DxeLxOzTHfUk8oi2W1RTn1CPLH8SYfqTxTRpa2Moypdo7rdI5rwIeifdCj+vL6rXsV04V7+5o3S1LfOypB+0vHQoZ7iVs/Qnk4C+ZlHnsxy40mfGaGGWo11Fw22wolhrwM09BJ1jtpyFgeiEnWcNOIc64iNffRXFZ/izONWvG2hPNVhqXynQWEgq2InUTfqoFMZFeWEdI1sgGMq18JOon7bgp84QFF+FFe0p0WDNEX7l15IP/kgP8pbV+Q6nkTni8As00156KiyUflI+kJxKb9KQ7QViZDbvlCela6YHklfUBf4WAiiSR+QBtX3eFR7U6ajvstu0UEfB+lJK35T6ke2YUwbPOkzI/KB3bQNivxz7CrMZUIdYxQNQEcvehf31Skg6jxjB1pGdCe/eTzjRPFOAuUZ7WVaZCNRVsFWYh40WFNZ9TFwU9hRFG8TmypD5RzbBsIhzGhrk4Q9C5RG1Q3pAmR3XdlxzqrZcKTLvMk2cxtS+fRRNoI4lBelARuJdUei9HWZ9zKUZ+KJaYrSF1rhi3UeiBOdqB5JFzFtugfSa59ltwxEnSWbKlb7QOW87joys8OTPpNQ4xxFjfY0KIwY/rpAB0gjr0FxlahTSB1C6DxjB1pF7HDxr7AkhB+/JoboGX4mgbLUYCDayrTIRjTYQJYZ2X1E5dqkbCcl2pMk2lUbYnkoL7I5hU1ciw7plO1LH+RDNqd8mnLKbLlrVC8kQnH3EX9ZuMSt+hJFaZIfbKYPZI8xbdKJ0tIXqgcSpQOIV3U+R/qRgHQkmTfKxzyI7bF0pfKdVj/zzJdZPjzpMwk18BI1SNMSG7UuGrhlJXbYEjoAOoM4EEVix6ljGXJXFl4MM7rT+TRgK/oluKmtKN5cQP5lHxpwIHXhLgMpD1k+lPc+IGzKX5P8ONlpi8o4ljPhR3tbFmL9UF0A2Z1szxwgr3/5dZfE9kllI2R7XaOyV/iybYna0Jg2uHdjv58+kC0qXZCnqy9i3GXxj2tDon7in7lQWItCX+VWR25LgvTMK01m/fCkb4W4/PLLU2Ny+umnp+vzzz8/HZuQN/RNGyE19LEREwoHycM3B6AzkMROoUynOXInf5K+oOzipAxRGZfRNB8gO4lhcz0pt9xyyyj+66+/vrg7O6JOOJOeJH1CnvOJX1u7kP5VZxHpU3bG+TIR61hMP3mLeTWzJ7erWDaSrom2LZSOqvY4uS++wNhHmghTtiiUJklfKN6ok6Zx82ykp+H/MR+SdUb6G+loSB/2Y8w4POlbIW666abUiNxwww2pUTn66KOLJ+PJG2ZEjX5Zo6RGK0q8D/IXw4nhm83kHYL0OI7oFsE/A5U+iZOxOCmA3FaUhzydEj0T0U5iHJOya9euwY4dO1KYxx9/fHF3dsS8DRNxUP4475uo6zYonYjSqbBkq33bWh+QftKdD+hj2SBm9qgsYrlEuq4vKnMJEGdMA19clK3oGeC+D1uJ4Valq09ivJv0UNSZcSiNiIj5QdadkY74L9OVMbPAk74V4oILLkjHz3zmM6mxPfPMM9N1HbFRVoOPjIPGKnaEOtczUBgcY/g6NweQHqMOdT4OuYv67xOVncoylnFEaYlHDSA4l4gYToxD8UzCySef3LgO9EHMIznI88YW2UWFSakm3tI/eaH8NACM5bdMKP15nYllM6nNmenI2weVTx/lofrIMdo4Ijs/9D4HJj0cQe5lK10S0xPTRNySvoj1PeqhadzRPeeQ8jEMM7Yn64z0ykqoMfOg90kfWwxl6E22G0b3kmuuuaZ4ejDHHXdcI3fzQNstJaQVSCfbzTjqWZutmOOQPnJdsOWT+2x5i9Ao7927d/CABzxg8CM/8iODn/mZnxl1OEiO0iuJHUJs7EUM64Mf/ODgQQ960OCHfuiHOssvyGbmsYWvS6JeJ2FSf02hDDXQkXDvK1/5yuCRj3xkkmc+85mjdCgv0TaQX/u1XxscccQRg3e9613JnYi2kscDsa7ndpyDLRx11FHJ7SyJdZrtlRxjvSAvDH70hbxFnPjluqc8gDxo8MtxmSH9yovKJrc7M3vytkJlA2obukK2nZe10oBEO1G6INoJ9bkrlJ6YT+khxt8Hildxl+mgDqVR6Uz5KfIkWWekl6ijaekqHLMe9DrpYzB+4YUXFleDdF43MYvuYevWrYOTTjqpuNoMg0C2Mgp+2V+UgT8V8ayzzhps37591JBeddVV6T7pBPLF865gkom+du/ePTjnnHOKu/uRnvbt25eOgg7r4Q9/+OB973tfcWd/Q13FIx7xiOT+wx/+8KgzUIdQ1ZAp/894xjMG55133qZ7XXDjjTem42233ZaOVezcubM4Ww6YTF177bXF1QFuvfXWVA4Pe9jDRuVapftp0CQLu4I4KIjlR1re/e53p/McpUsDCOzm85//fMoXNlqVZsImvj/5kz8ZDRSoP00544wz0vZO6pfSPwuo09Q/EesFefryl788+LEf+7HBgx/84MGnP/3p0QdxpkU/MOmHpWnQ4EzlDbEMqe/LTswP5yCbVt67QGGbZqAvlU3UncpG9tgFMUyFO4r/kAOTnbyPk3tspOvVq5geRMhW+yLPy0gPwziV9yYonfgV+/MSJn0hX+tI1I0xs6a3VkS/xKvxYjICZYNYwcCFAZP8IGxVLIPJ47nnnpvcsFIlrrzyyuJsfmjgxYBTWy7hyCOP3KSLrrn44osHV1xxRXp/6ZJLLtk02NWWz/zdJjXEPAOOkhwaq69+9auDD33oQ4M/+7M/G3UI6hTKGnyRh8uxq19IyTPhVf04AKSZlcZl4rd/+7eLs81Qhyjr22+/vTdbAmyGukVcEG1F5ViFBgw6ItjJO9/5zsHHPvaxVEfIR77aF8HGbr755tq4ctQ2YA/Uv6uvvrp2ZbALyCtywgknFHcG6U9lSA8INvjmN7958PWvf32wZcuW0WrftHWBH5goq6r2sg3oOy9npV9luQrEchGyceV/EmJ4kF+b8UhfUW+yxUnLJCeGl4dLvPoD2pzHCZ/SxNc7u7CVnIPSM4yOtBBvn/VOEz7Fq/iUd45Nwb30BYR5b/HhmyTK2xqyqWyNmQO99t5xwvOc5zwnHU888cR0LIPBJQMmGgt9gbIKBkx6X4fJlFbMmn68pC8YcGr1Zdu2bemYw4SsaxjUxgEfA16tKFahhr5Np0XZMGBnRZaOIEps6MuIcezvCLrrLMdBeZx22mnFVTdoG19fkwn0+xd/8RfF1WaoQ7/yK79SXO0HPfahS+oWK2zRTuriQS8SDQAQVih/93d/d3TNhPXJT35yqc0wIXzlK1+Z4iLeNpOi2DYAPwrMAukmrvSRdtUN5Od//ufTKiTuyBMTvrvvvnuqiR82SHiU1bRUlXMsy1Uh2mlEeUcPkxD1luvR1JOXiXTYpS6rwiuzBziofxt6U12RTEuaSGZ/CoL4WHXss97R7sSxABBv7NvLdFKF2omor6GmU740WV5Xot3FcjZmVvTWksQBCFsuGcQyCapajcFN3KrJih0NRtV20KoBztOe9rTibD5cdtllxdmg8ouB6KDsmd67iw1sfMeRlTtt49J1RPcR/ElHMdy4/VWNfN4Asfqid7T27NmT7uGXc97F+vEf//E0YGeLGit/dAo8Y9saz17+8pcPfv/3f39TGHlDR7wMfjd1pCVoiyGiFVTlhzxG/ZTZChPhn/7pn07nTKLYisgWQ949i+k7++yzR1smWWEibx/4wAeSv6g/BB3KjnGr+6Qluo0TQk0Sc8HPiEI3r3/96wcXXXRROic80gikk/OnPvWpo7SyBTQS9YGUTUqjDSHkJ6YP8Kdr3o2jjHEnexkH9oOdPPShD01p1sDh0Y9+9ODtb397encUW8Fd2Uol5UO+4Y1vfOPgh3/4hzdNpIBwlb68HrCtU88Q0q26EO/HPI+rS1GqiOV+3XXXFXf3h4ONf/aznx386I/+6OBJT3pS0gvCVk/0+Tu/8zvpPVfeAXzta187CgepIpbhpZdeuikv2AB1hTTFdEU30q+QO8qJtDzwgQ9M5RS3D9fV1WVEeVK+YjtVZ+emH1Qeua11WS7jwsrjFdFW5Df2odPCn4FIkj77dHAb1BfKAyLIq9ptpA2kdVO9IunDLCWdkb8OdLWMyGYkXbGu+jQTMjSYXtm+fTsWOZLhgKx4spm9e/cWZ/vPo5/4rIrh4DHFNW9Ih9LdhKif4cB2dL1jx47CxYEwdW84ed50LX3hDgiH66gPrhGewQ9+8IONO++8c+Pb3/72xje/+c2N97znPSM3F1988ca73/3udP6sZz1r49Zbb03yhCc8Id0bDmA3/vAP/zCdP//5z9+46667Nv793/99dA/BP+EojOHkJIXxG7/xGyM3H//4xzd+67d+K53H/OYo/0o7xLzpeW5bpOvGG2/ceMtb3pKeP/vZz05pIC2f+MQn0j1kOLlL93T9kY98ZOM1r3nNxlvf+taNF7zgBeme4o7li0BVGSqNpItrlQ95jc/F3XffvfG9731vYzih2Tj22GOTmyuuuCKlDZH+Sbt0+5znPGfjjjvuSPofThjSPdKgOPM4RFka4rlsjLCuvvrqdL5ly5aNb33rWxtf//rXN2677baRLhHZC/KmN71p48///M/T+fOe97yN7373uyl92Ar3/vEf/3HjYx/7WDrH7r761a9uCov8vepVr0rPzz333I1/+7d/S3q5+eab0z2E9MV2QihfsifyxLXKj6P88CxeC13zrCyOHMWhOKW76OeJT3xiuqZs/+AP/iCdU3boct++fUm33DvttNNSvfzkJz+ZrmUzZSgelZvSoXzJL/diWLqWTmJ7cs8994zS+nd/93epvLEv9I99rhqxHcTOyC9HbJb2oynDAfPG97///eQPfREGR4XD82UD3VBv0Q16oZ/g+J3vfCfpDFvpC2yNuIkLPSJdxqu2lrwpfK7HlTllSPy4pc5+4xvfSEfCaGMrVRAG9oLtoOtvfuubG3d8+44UZ1/2gy7RM3kiTvLDkTxxf1Jdy3bKwiU/PO8T0o0uiZM29mtf+1oqr67KahKka9JAPVLbSjqbtK2kmzoQ6+Ks9GlWh9736rDFczhwKq72f2ylbPUhrtxxPkzbaMsmv+qPg1+w+UU6biddNshrXP3jb+41hZUN0Bbaww8/PB1ZXS3TNfCrHjqWiOHEYvDCF76wuBqkj24Av9h99KMfTR+CoXz4JU/3Odc1DCdX6aMt4+CdK7bhKe5x+dV2WH3kh1UOVuaa8KhHPao4a87P/uzPDt7whjcMnvKUpwyGk5J0T2UzHDinIzqPeoO8DIXsX35ZOYP48ZxIVZp5H2w4KUqrfDmsGrF1EkgDK5Gkr6pOaPujbASJW6P1niRhYSsi2k0Z2M+LXvSikT1opY8V4eFEMN0jzIc85CHpXCulkZg/4hl2aKPtR0IroUJ2rvcPteKvPMl2ImW6ifWFehTbpbhKHlHY2k6tditC+zTstAePecxjNtUV8h71+au/+qtpuyd6BPx96lOfSvmv0nkO6WGbPHUsUvUhI63mYZfEQb0E4gXSKFk1+sybylV1xjQnL5OudZmHobjG2YHSJDdKk9I1DQpD4QHxsLUzxtk1xJnHq/58klU+oTCQmHblc1p9LRvkW31Y1DfStGxzPeZiTBN6n/SBJnEa9DalycCeQRqDrTixnCeaeEHVILFrxk2YmKSVQXnkDVAVNDaxEX/JS14yKhu2rZU17lUoHsU/Ll6hrZRs+dWgPA7Gu+YjH/nI4I477iiuymljb5rkaXAtv9FW2oDuNaD/3Oc+l45V5TwOTU6YwDI5K3sHlK2Cv/RLv5TOcZN3WDmyFdkCRwYO3/rWt9I1sH3w8Y9/fDon/bipsh3i0KQPqUM6zqm6nxPtCp3GSWDZhD4+r+N+97vf4MUvfvHg13/919M1P6jk9Qb93lN83EWTLyb0TAQR7uNmHJQremv6NwrVLssuqdPwUz/1U5vKsaqMlhnlK8/bOBuvI/qlrJA2k3azv1yE9BZ1Og0xPFFlBzllz5WuGF5bZB8Kg3jShO/Q/e1pHxCX7FM6lQ6mmfCJ0big+BANKI8xr+tA7MPQtfIufUs/dUR30iHhKVxj6pjJpE9okNt0wC53GvyUceqpp6bBityy6tdmINY1caJa9SVR0tiGtpPliFb9Imrk1WioAapCjRIrBbyXxGDybW97W/G06KCywWs8FzEeNVZ1cQtNUHh/SZOoaShbLesLJq27d+9OEw/0oj/l0XZlmj+LwDt9vAupFS0Ry7npjw3big8NEVasQ6D3vx772McO3v/+9xd3D5TbOGQPgnPe9RRf+MIXBnfeeefgO9/5TvqSp2ylymaITx3mpLSpQ8SJe1bLZGtVdppPEqvQO3gve9nLRnWHa97jywdXxEVeFSeropr0RfnJn/zJ9HxaWNXFHrFLJqZM7v/+7/9+pLNx5bMKdJk/lRlHJNouUld3zH4oi1ge0mfU6zQQRk4eZxlyU5W2SZBf8qQwFIdW+vqA+CQxXk3WYhs+CbRrhHGfQ/cfebdP+VynupDX/7yMpfO2SJfSJz8IdqlXwldazerQ26RPH5SIExy2s2krIgNTGTyTtHgt8It7Bla5eyAOBtIMzPSMv/1V5X4WEDcDfGCbVf6BCNI87s9WNCGfTGqiqb9Xp8EnA7k4KBWqzGqA6io3OmR73ite8Yp0/cQnPjEN3CPSdX5eRYxf1+PQBAUb0srfJKD7su3CZff46MYLXvCCdC4b0opR3ZdRc5ioMbGSrttM+Pgozq233jpa3TvmmGMGX/ziF9O5YEuo0kpcIv9gR4SVKwb25Cn/AJLyxxZXrQBBk/KiA4u2wDV2qEnEH//xH4/c8ANCnb2wBZQ0NOnMduzYkY76m41aBdePBk2gzqJrldW4vIJsUx9wyesntsOECvgBK9YdJln6I+7AZItzVttYBT322GOTn9ixa9LHNSiNVduF66CtpO0gDLagfve73x19QAme/vSnp9XZvC1bJZTXcXbYFPRIeUnyckPHOpfE51WCv+i3yarvskI5RBGydWRScv95HOPI0xTTE8Nsg+wkhqE4aCcnmRA0IcYriKuLVT4g/Zr4pdW+9EWXA/WDejGpzpYF8qj6ynnUt/SDyJ6aQhhRj7GNiW0J5xLdayJqa2Kbsw7ltRYMC7EXhpM1rGOTDAduxdPNH1TQ/egWGQ7U0n3I3fMsupXIT1n4s0YfSIiCXkSuo9y93Ma8INEdz4A8RjdRd3m4wwqcXlrnhXFebv70pz+96TkfXonXw4l0enF4OPgc3Yv65zxPIx9Nidd8eCR+7APJ3UTdlDGcNIw+liFyO4hlPWysRvnUcz4Qog+G6GMoSJ5nXrDWC9K5/mIcTcowdxMlonIh7ve+970jN/rQjD7kguhDJwgfndFL9+hI95E60Cd+cmI+CF/n+rCPdIjEj+Igz33uczddR1vM00descHbb7990wddYpiUE8/0cRuEcGJYMQ/kSfcR1RGI9/Oy4jp3E2Wcfca0RJtUmFXP+fgOdqqPp/DhGz1DqHdlwkv8e/bs2eRWHx1ClNayPMbrMjeSV7/61al8VO/zurcqUG/0gQV9gIUPJvBhluGgqnA1HtzRXhAG5cPHI7BpPiDBOfcIm+eEjfABh1L5zoFzuZXIP89oK4gT+6Gd6hrCjB+ekN0RP/Gitz5Re6hykf7U1k0Kfkm/9ImgzybljU5IE3qg3VLZEhbpnQT8RfuTDRIPZdsHsnni2Vd8lIZ8kAb00BXoUx84Il+yIeVvUp3VQf6Ik/jm9SGX2J+TDuKXqB61aWMIjzzJ9siT8kX4shu1DwjxI7puIrFeEB5H7mEv6K5pes1icgj/DDt0syZQ3MPGI8mwYUzCLzjDipye5fArFCsRCKsS/LHpql8BCYdwhw1DOhKmwq0KW2EinHeJ8qgj6UOqTF6/vCm/SlMXv7SyclL2XtlwAjBa9YtpTelFCh3m5GklnUhV2UyCylMS7WScrSgt49JDWMqvwlbZlIVNfglPtnLYYYcVT7qHFS2tzOVU2c60yD7++q//Ov05EeKRrqPOJQK9yBawU/SvcmgKK33xD8pHWHnkmcpzFZGdY4/oGn2iS+WZ6zooE7V7sa4IwksrHkV5QZNwQeU9KvehN1ZNFKbKG2kaZhNIP3lKbVFRNwlfcSFV9bsLiD+WC/GT3xj/JBCe8qTylg7rbJw0DAfqI70oTfhT29QW5THaDOmJ5do1xKk8KM6Yjy7jlL5VL6Qz8qf4urRbIB6VU4xTfUddOU8DcalMJdJxtDXZG9dNUJ5inQDClJDHeK8tpB0IW+cKVzZJmvuwSTMbetveaRYTKnIudcRKr0alDJ5FqWt4FD8NTGxkVg0mEVu3bh3lV7Jt27ZNX8xcNFQuKpsodchmyuAZnQZ/QzHayDhbAeJVWjj2gbZi7g1bcZFdu3aNtqf2CXphYBIHX0he91QuDAQ0oNJAToOCprAdmPwR3l13fT9t79R2Z/6eomlOtBkk2msulF0TGbm9t7j+wQH/MTxklVDbEAXQ56RITyofULg6jiOmI6Lw2qZtk7/h/wpfUtWGTkO0q5jmGG+X5GMB4iPukT3P2G67zl+E/KgN1pF7Ucfog/Zc7fo0SJcqR87Hico+SpmbeB5F8SBmOfGkb82IlbtJBVZjTUOlxruK2KBpkCr/VRB3bGBWEd5b4z0v6UJyyimnNP7C4qxpayeCfI0r9/h+7e233z5yV2crMQ1KVx/w7iGrr/E9YYR3hZmk9oHeTQbepXzHO96RBgSa+OmX1VivEJBOqDv6VVmTwKYTP/4kCvES5v3vf9jgAQ94QHqPkInfJH/yxBygyp4nYWiJxdl6oLoX2wbpU3bflrxdU3iKowlVaZmkXYr5GJ6lo8Juk6amEJcG8NKBULxdx5mHO9JV+PFiFVC7K5GepWPKk/ZbP+QhXZCXV9R1jp5FieT3mpyb5cLbO9cIijpvlNRR8Sw3BSq2Bp9siWAASsM1DsJS+BqAKp4cNYKIBrYcue4CpUHHvBHOIb+xUdaAuy7PXRHTmtKLFOWTk6eVdPatuyo7ESpH2QrpGofCbxqHwkdUNuvS+ch2o6AricBWkWgXdeUQUXkQPmUgO5PeVxHyKhtEl+QZHSrPTWwMXemXfelP5aLwEM6bhJeT1weFQ5ixHZgk7CpIP3lS3ZQ9KC6kq/amCuKNbUOeZ86bQvpjOSs/hEFYTcuaMFTWKmOlR+1SU5Q/pQmUHoXZJcRXZqPSKWlv0s+3QXqXkFcmuHyZ9L73u+/gsPsP+4vDhnEOr7uCvOXbO5U/PkrVpV7RYSxHlSWS2xhCGpraWkR5GulwGHYMH+FcMikKV7ah8JR+BF2a5WQ2o1mzEKghykWVvAr9nZ0mHYEan7wBQnLUsCCxwRyXFtM/KhMNCmQfkirqyjunylbGQfxKG7IuaMAi0eBSnbD0FvWj+rROepqE3K7H2XgTZMfYtQbuklh+08j97n/ABmQHdXVnGZEudQ4qr7blpDZD7Zv8xzaoCbG9EgpTcTQlz4fCRYina2Lec/0pP/n9aVF4MU6ds9qXymR4XERimUrUrjL5YhL2/bv2Ty41GWPbKv5AbUCs9xyj7TRFuoNoI7GNUTyKK5f4vMyN7nHUj7fxGXF4wrfceNK3RsQGTA3/WIbtUmpc+K9FI6UGKUoVqeEv0qXGFDHzQ/YRpdZWCpqUuUhucNbQj2xlknStAuiHTndcZywdohvVKQYjnE/DOuh52jzKhhENxjQg02CKsptEWJ3YdH3YgWvCV7mvGlGnQBlJ2tb/2G4goLDbTLBwGwWGKUphxgF/E5QXEfOLdI3iK4tTkP74fFry+BLDS91Pehu2T13GWUVTnZIeJnJpUjeUO++8cyS65pgme3cdWMFMZT/MBvFgG6r7qv8cuyhXlVk+4Yv9QpnENgSpeq72JrY7PPeEb/nxpG9NoBFDaJTUqNc17sNmZdS4tGmoop9x/vJGXxO+WXUA5mBkH7IVlVFdeeTlPK7cI0MLKeZ9zdzLXqKsI3S+6qTVYdPpcx9dSk+qU6MBSQ34jWURy77OBpaVLvMo/WlCoAGZyopzykjP2wj+JFzHclp18ryqzJqWl9qK2K5BLKum4CeWQUrbMDjC1MoVUofSkOdDYaZwO0T5jnHlRD0hco/oWRuRvpGyeGO4TXQ2C0gL7SUTudFqXiZM9vLVPeVPdTVO9hDq/jSoHITiiRO+2L5EO2orClvCtVkNXJJrghpWRA2tGpHYkMCo8hfbOpG25P6qwlD8pEcdjToKM3tkI1Gq7CRnEjvJGVpNcXYwMR3RVurStcrQGWtQoUmfOnz0QvmhozQwGR7bIL1K56uo55i3svxNYtP4QVQWDMSmHfCtK9KlziGWF/bdBLnN/RDmJANa/MS6BoSr+tYkXTFNiJg0TXUonigR3VMeEE1qJhWFk8dFHsvia6K3viENSpPyoQlgFOUvpXmYvVRu9ymf8HGvS4hLdkLYtC9cG1OHJ31rgBrWKHkjLGLDoYZlWhRGVVix8Y8yT7rI97IRy0BlImlLEz+ThI17pVFbqZB1RxMLhEGA7DfpqRhQNRlU5XavMpqkrJaFsnyhh0nbAPlFGJT1MYBfJ/KykC1iy03tUu5ytyqjtlDHJErbMPRRe1RXz6Aq7Xl+u0LpqooXuI8bTXh0zM/LRG1MLjHenBifZN7kupe+lI8okGxoONmj7b3ffTe/L8exj7IE2YnEmCa4N1oDaJzUcEnqSA0Jqy7837JBifFM6lcNqpkdsdyizdSRdzpN/clddD88S8cq5DZ1uvoIgG0lESd9mwajhb6a6iovT0j6XkE9kyfZFALKf66DSegqnHWmTIexzFRu4yhzq3AnLR/VMyaNKYxh0DGeuvoS3SIwaVrqUP2NceXEtMi92oz8vEx4Lon38zijzhUXfuLEcZ5o9WxT2ZagfOBOkz2t7PWxuldFVfqMKcOTvjUgb4AhNsI5asySDP9To43/OtTg5/G0aZgUn/ya2ZDbyST6l786W0nxDG1F7iXj0HOO924cSKvSaw5M/BisaMAi3Sa91ZSL6r2IfiWrRJ4v5T/Xw6Ssos5mTV4escya6lduFAZH1ZFJkX/VM0FcTdokpT13F/PaFUpPVVxRcnJ/uo734znEc1C4UV8xPrXjGj/0RZ6uMkiT2lGJJoACN2kr530PvFMn4Vr5MmbR8KRvxVFjiqhhRuoaJT2X+3ENsp7HX+pinG2JcZrZIH2rzCR61hSFgw1gD7lfrmUj/A1C2Qr3m8Qjdxv3DuMpJn4Kz+yvt/mv1Ag6a6Jnuc/9yv8q6TnqJKJ8I9MwTs+mObE8VCaySUkd0U1ZeJOST2KapqvqeRdpyhmlZ9hmxngVl/KQi57nUuYunuta57pWm6T2CeEZkKbYlnM+T0hnnMghMd1JDh1O+O6zeXKo/MyCUbkW5WlME9bij7PPsiIaY4wxxhhjTBnzmnqtzaTv9f/pAcWVMQd43Ue/a9swrbDNGLN6uF4bY2YBbc28pl7e3mmMMcYYY4wxK4wnfcYYY4wxxhizwnjSZ4wxxhhjjDErjCd9xhhjjDHGGLPCeNJnjDHGGGOMMSuMJ33GGGOMMcYYs8J40meMMaYX/vNbdg3O/8h3ksDj/uPJ6Z4xxswT2iLapVf+P58r7hiz+njSZ4wxphd++ME/NrjgZx84+NLuv08DrF95w3sHf/fONxZPjTFmPvzM//7qwbte87zBfz/t2OKOMauPJ33GGGN64a3/+enp+D/+y8lp8of868e90meMmS/8+OS2yKwbnvStGS//H/9fcTYYPPe/vmPwjJf8X8WV6YO4va1K2GYiZrHl5NV/8+VGW+ywDdISbcasDpRrtEPaAwmo/KN9TgLhEU6ZzWGL4+yria1SVwi/LU3rQVOUz2n1tcigM8SYJqhORFH9yNufvM9TvW5Tn5q2Wbhj18Gs+7ZxbYT00UX7oXGH2nJjhCd9a8zDjt46+PDb/1txZfqA7W03fODPR6scwFY3Xd9x+y2DR215aroPv/h/Xpi2nNz/f3lQLxNyBmw/9MAfKa7G89inPjOlVas1fRE7XvLsjqp/GBA86KGPHNkhQnuw9Reen55TDs84c3s6n5ajnvQfk00/+oSfLu4c4I2/9KhK+2pqq2zPoh61sZs29aAp//O//h9Jj6u6eqD2iDIzpgmqE3d+598GX7t5z6b6Qb2nXYAPX37hpm2W2Nq3bv1S6n/oE5vQps168v/24pSWh/7Elk4mWU2gfVL7WgZpQR9dtB8/+ohHJ52if2MinvQZ0yP/fsc3xza8n37/nxRn+1f5br/phtToM7Bi0tU1hEsH3BS25fUNnT+TEITO2B1Vv/ALOjaQD94pBwZmD/rxR6Yfgxg0TAsDnb96wyuTTTPIarOy1sZWGTCS7qa0rQdd0ecKfldQZmUTaNqj3GaM6QNsjb4HoU8cNzFTnWraZjE5VL9Lm8S7fX1DGuOEj1XGWMdIE2nv6gcjJsz+Qd+U4UnfGkHDwiTEzI66SVPqqELjHCc88/7gxSzjp/NF/FJ9v9AGPPhhRw5u/9cbijub+X//sJvVPXH9VTs3DWT6tKlZ/EAxDUx4WcFfdKpWIxZdv2Z1iO3EuB8BJ9me+eU9n9jU586in6Nfo39j1w+wohfzlY8DpoEJsuuqqeKQjSHF+cpyyCGHDF7/nx5QXK0f47YVlP3iv0687qPfnaltsJrFlpWyRjnfnhK3euCPDoMteGwDgXFbQWj4+TVR4FedDFvbNOjXljt+ZaQzlB+51zY4VoAOe8CD0i+IpD23qaq0KE88f+7//fYUVm5z5C1C5wjKA2ljBZDJCug5VNk2frrqRHNmbTNdwsSDMm+in3FlF/XOc8htB/LyyeMdVx+gylYVBoM+1QdoYufyW/c8Em1UcShutpYyqJNuo32KPJ1fu2nP4KFH77+epK6xOsEWLuKty0feFohc72XuyEveLim/QvkWZflfBpa5Xi862Oi3v/aVQb6VO7bxsd6pLkBV+8DqmfoEoB5944ufr+1vcnuObUaT/iq3d4Gfsj4wuicvnEe3Vf1fTIvqZdV4ra495hk63vLM56W2hZVO6SDXb9S9yOu8mQ7amnlNvbzStwbQoNGQaE89QkNAI1DWgJjZQwOv9wwQGmI12uoUaLjZ6sJzGv+qdx1iR6qw4qAR1AnxnAadzoBOiOsI9sFz2PtPHx/wjqI6GNzK/y+/5r8nN5HYuZKe//k7L0kdEh0KYQCDYfwrLKCTjANQwqCTis+B8NWZ8Yx8AnGUDdzN/ndM25KXHXqnTUHvosx2KOPH/YeTRmVL+VCW+Id8sFNFma0C4eg9GJ7RvhEfaOCS+6WORarCzlH6iUMDRAaw6CBO+KrALf6pt4T11hc/PR0jVXUt1yHlweoEq4ZN8ol7/PFMZUb7nw+kYxnyXOf/67b/ssk/A22VIfl+2OO2pmcI+Ztk9cWsPtRV6nwUtfERbJr2BnuibmPb6i8i1DvqI/aOW9VLKGuzgCNtkOxVEyLC1zPI/St+jqQntjnAedWEL9YPziNV/V+eFp4pLWX1q649Jp3/4fRXpDKg/mqsQb2O7RYT6bu+9+1N6cGvJ3yrgyd9a4o/4rJYMNikMVZnqIaYxl+NLx2UOjYa5iqYDNJQq3wZ3MUOAGjsNej7/ne/nX79GwedBZ3jng++Nw1CSYugQyjrFIhfHREdFh1R3jEyGMYvkzzyLXCHHyAM5YVBpXjIY56QjnqmbTrxwzhmevKyk97rwE7+9R+uKa7222GckOQ2WUWVrVLuhEG6GKzElTQmUNhK7jenTT3Avvj4jcBmBWEQVhfkda1MhwwEWd2ry6fS+IVPfDAd0Rnu277/SNhpYFwMRAXt1D9e+Zbiar/bfDXHGKBPor5GURsv6O+Y2GDfcVLIeKUNVW0WbU+sp/SnpIt61qS/ot5Qf3SfOgqxLYjk9SPWZajq//K0AHGS9tjONYG2BD9vOPWRKa+0H+qvv/31r6Sj4IckdhgI3NeNDcxy4UnfGkBnTYNCxecYz/lVzcwfGlb9uh5FE5o29NFIq8MmPXTKXaHOjq00hB8ndXVoAqxfYY8/9Yx0nERn6wIrxdB04jYNZXbChKTL99qY7GE/rAR3NemqgkEXP7bI3thi2Yet1dU1dMjATZO8cZBm3GoFk/pGmJoENkH9BwPvOEivGugaMym0S9ir+j9JVz8klLU9fOegaZ/GDz+4ZXIKfHAmTgIjTepH2/4vn6Q1Ia7a18EPSXE1kh+54iTQLD+e9K0BWvpnUKRGVAMLfpk184eBXNtfM6uoW7GYlrYrBeOgs8MuJ7VDbc+h4+SoX0dNObQFlB+/bFfBRKorymx63Cp1G9gGxSCOdmxWE322XY7TXR+U6bDNxJmvp+pHPlZOqG9N9cWgVPUqH3hroDuLHxDMesA7efE9vT7gXdicpj82arWNFW/qEyt5bAMdx7j60bb/00pjX+iHJPKG0FY3+XHJLA+e9K0JNDz6dZdfqfSLv1kM2CbCwEyrCMC5flFsA2HRcTIoFm3D0kATP4RF2vQuAb8G0tnF8KZ5j0fvmWkVoim452/A6YeMWQ7+lxkGKeiZTj2iX53LtuqOQ9tpZW9MErA3BjO5TXMd/0zJtER7KRvMdQ2TZuJkYjzNV/9i3RxX16p0qA+3NEGrCJKmgzjifMSxT0nnGrhqNV3w4yHlje2IadoCs97QfjOpyX94amJTsU5VwfbKvG9kZSvfdlkFdZT+KtanslU+0Co79UPQXwE/vqjO1PV/8U9K0O/WpVV1NG+Pm4Ce2Y6qvLXtC8zi4693rglUZv1SSwPAL2oeIM/ui200wDTYERrVCOUSOwgGVHxCX+81AINAOil1DnF/foTOKb5/Q1iUfxzoc48VQf2ySmfLL44xrYQPrB7GX/rz/MT3DUWeH63KCfLCdhXdI35+WSQ9nMcOMPdL2pnc5u8YgfLRF6vylb/8K21Rb03KjskDgzPZD/ewiWgLuZ2wYqR2J9qiwos0sdXcDROinDK/Md9VYVdBW4r7WO/yfOZ1G2Kd1DtDk9S1qKu2OoooDTkqU8IjHeRXeo06VjnH5xDLeJnw1zu7J29HQHaX203sy3KbLatPEMPP26iqNqusbcOO2/ZXkap+GGI7q/ojHcQ4qa/q/3Cn/i3WubJ2MjKuPY7PiEs/3grSxAfZ5CaiMEw3zPPrnZ70mbXGHf3ywi+j/KqZd0Zagexr4GmbMcsEk8aygWLV/XXF9drUUdW3MHnL/ybptOhHoqofZ/rAbcVsmOekz9s7jTFLCdvWyuALbV7FNmb/qmTZn+ng/jTbU43pG1bIFu1Dc2U7S4Btm7OamPUFE9f8T0oA9yf5gIxZTLzSZ9Ya/7q7vLDSF7e+ir5/GbXNmGUi38YL3q51MK7Xpo78tQlRtf10UvKtprPaMp1vuQVt8zbdMc+VPk/6zFrjjt60xTZjzOrhem2MmQXznPR5e6cxxhhjjDHGrDCe9BljjDHGGGPMCuNJnzHGGGOMMcasMJ70GWOMMcYYY8wK40mfMcYYY4wxxqwwnvQZY4wxxhhjzArjSZ8xxhhjjDHGrDBr83f6jDHGGGOMMWaezGvqtTaTvjXIppkA24Zpi23GmNXD9doYMwvm2dZ4e6cxxhhjjDHGrDCe9BljjDHGGGPMCuNJnzHGGGOMMcasMJ70GWOMMcYYY8wK40mfMcYYY4wxxqwwnvQZY4wxxpjeOP/889NXCzkaY+aDJ33GGGOMMaY3LrjggvSZ+hNPPLG4Y8ziccstt6QfJ04//fTizmrhSZ8xxhhjjOmVyy+/fLBly5biypjFY9euXYO9e/cOrrjiiuLOauE/zm7WGtuGaYttxpjVw/W6f1hFOfLII4srYxaPWdjoPNsar/StCddcc00yNIn31Y+Hpf2oL+T6668vfab7s4Q4iZsGahxyN4/yls3VpbEKfhU+7rjjiqtqcEc8xDdPtC1EQroieR3sMr3oiTCroPyb6FKUuececUxanl1BOhZ5600sY0Tl3KYO4q9pealckC71orajabiywXnXwz5Q3uryF3WGqK6o7k+rm3Ft4iRxqM1q2oc1cV/WdgD3jzrqqMZxNWGa9CwTy9AXTqtn2hjCqEPjrzb9kOplnR/cYaNN0rG0DGebK8+aZLMR27ZtS/rYvn17cWe9GWcbu3fvTs+RvXv3Fnf3g/7Q5TwYl64cpbGJ20Vix44dKc1bt24t7lRDHtFJE7ddQLrqUPmQrpy+7EZ6mBZsu0r3PKNs5oXSNq+6Nw7ZLBLrWlmax9k3fhVOUxRejANbiGVVpjPi2rVrV3F1MGXhloE73BDWrOph19Tpm7zhZlz+VNYcc/Bfp8dxjLMZ0SaOaGdN2o227iP4RSfT6iAyTXqWiSblLtAtuli2Oki6yWNZvYmoTUPq3Ar8yE6wmXHINpu4nQbCnxfzi3mGzFPBi0bTyrUu1NmGGozYUc1jYKNOUyhd4xom3CCChrJPoo66gPTW6TnmCV1QNn3TpD1BF6S9zG3Xeop0VcbYWpXu+7ajOkhbnzpsStQRdkdZV9XJqsEu92IdbYPagFxiPKRR98vqBm7H1RnKOg+zjPic8MaFuaiQz3GQJ+mzLH+UO/aA4K6MaesO/qvqpWgTB2kmP01tsK17EdOE30ltHqKtTZqeCGFUlde8ID9RZ23LnTz1XQfr2oS2EF5dOcQ8kj/yWUVMH/rETsa5z+0yxtU1pGVeeHunMWM4/vjjB8PKP7jyyivTlgm2B5x88smDz3zmM4WL2XDeeecVZ805/PDDU/oF6e4LdIOOZk3ME/vwF+kjAVdddVU6znIrYp9lLM4888zibP3Q9imErxCqHTjnnHPScTjQKH0f5KSTThocc8wxxdUB+FgA9XQSqNvDPjwJbRQQf/wAgb6YiJCGCFuYuqizbImKcRLPEUccUVytFpQ5OlZ5R4aD0MEll1xSXJUzi7qziPUztkvY7aQ238e2u0n61r4544wzirPmzLIvpB284YYbiqvZEfOYt2eRSexkluOleeJJnzE10InS0dMInHrqqenLTmXonQqJiO8daD+69r7TOMl91XsJuGVwduGFF5a643kMU+zbt28UNrJnz57iyeY97lX+Y9qi5NABqIHkuRpcDZAF18QhfUS34xjn/tJLLx09Q7eL9JEA0sJAkLIj71VIT7m8613vGp2jg6gH2ZpsQWXF+wgqR/SheDmvm3zmtilkH9K94oru8Mv9WAc4j+h+lLw8I4q3yp1sGMn1qzRKIk3SGonxQD6J4rkGQKeccko6lsEETEjXSP4Oie4rvirq3OV2FcuL+GhPgLpbFUYk6hRbFAyUYn7QZRw8rRovfelLU3mr7omzzjqrdCAa7QdBV4Iyoly6ahN1P9qzrqvKT8QybEKVe+7HPAITK7klHWqnOcftuLoscIfN0p7iLq+zbdIj0H3etyotqj+qNzF8uRW4wX2sc/F5LK8oZXnlPvaFPXEey6qq3IG+Rs+QCPHU2VmeP0R5j+CPtJFG3CgPuZ7blG2EcpX7vIwZf8Wwyvp74hxnJ+SJ+3neph0vkZ7oXxLLbyEYdl4rz5pksxEseaOPRdvOMC/a2AZu0V8ZbDWIOuWc7RhsJ8CfhO0D8R7+gHCrwgaexfC1XQEhPIWp7Ql6LohH8UW/SPSv9LC1gWtB/OO2lyh8If+6F68VjvwQdxnyk7sX6EPpBdzNwq5jGqqIZUma8KOyic9yHcitUFlFHXGNP+WfY8w34SN6xjl+Yrw5PFMYsoVY3vE5UDZ6rvARueEY/ceyUfiEUQXu9Vw6kP4Ih2vlJ6YFeK64QOmL54jccIz+I7hXPFWoDJFxeRJyr/jlV/lTfpEqSG/0I/dKa16GyrfSx3OFQXqqwL3Cxp2uo34VDmEqb0rXMkG6x0HepCvyHO2C+9IJz3L9SO8qW45Rt7gB6Q9dliE/uXtQmSNKp67jvZi+6Cfaktzm1LmXnUXdcB7tgefkgzQoLLlX/qrATwx7kvTk8Ez6IAyFF8uQ8Lgn8KMw0af8qJzjc4jPFEeVjiHaDEgvZeUOPI/xSbfoR37L/PMccK9nwHkML4cwo3vcEp78KP54T+moQmFI7xxjGohP6VW5V+kw9xvLFb/yL5vRcyH9cIx+kehf8Zfpk+sqxj3rm/nFPEPmqeBFI69Y605T21ClRlTRI9JrLmUNDNCA0QiKvJHK4VksMzVEamSAa6UN9zF8wL8a6jr/eXqU/yrKnueNfN5RlKUhUuee81yi+74gnjrysiRd8hef1eWxqpwk3M+fg57jH4gzT5NQHJFoK4DfaH95uuueE36sN7n7CO6i35xxtjlOH6QJ6tKaI/2MSy/PYxxtkF+VleJDytDzmGbi5V7US4T7PI/pwz/3Yrnk5OHm13la6nS1yJDucaAn6UplrjIj/7I5zsvyH+1E/tBnLEfpL7dfUede9h/LNL+O9i/3Sg8QfrSTSBP3hC/7kPtc9Jx06Bykoypy923TUwbPYnnVlQHhxzxAHmdMZ1sdQ/6cc+6JPI15+IB75avOf66D3H1O2XPCiDrJy6qubMelQenNJbqP5HHn+QWuVS9wS3wRwsjjr/Jfp98cns0Lb+80pgaW53mHY1hfRts88yV7tjoMK3pyE2Ve2w213Sxy9NFHl94vg3yyPUL5vPbaa9O9RUHpyvU963ctm1L1fh+2RJloK9B11103GHYetXYz7GxSftmSUgZhDDuiRtvsbrvttuKsP4Yd6OCyyy4rrgbJtng/qoxhR1mctWecPm666abiqh3oEF2TXm3ZiduU4rszV199dXFWj7YMiabl0La8iAN9w6Q6qEJp0VavE044IV3feOON6biqaBsn28gox3F1VtvVaEOnse1lhPqIbmIbjSzjH77Wtj7actqzpmAX6k+Bvov68rSnPS1dT0s+FhHovWk9ZMuytnsD7dhznvOc4mr+0M6gw9yO4pb5aZh2vDRpPz4PPOkzpgb2kWvQrs4qf/mbCk5FXyTKBqCkswkMdOnYeN+Ijo4OYZE6ajWmamQXHdLLRI2OP3Yk3GdyxmAZPfOuhGytDfH9A9F2gF81eOgCOmfyTh4RbKvqRXxsrmlnW0WZPujEp4H0arAB5IOBIGWoQSB5rNJjfLcEv3ysQWG1QR9JqdMRPzAQDxONvn6wiR9skW6QZRzUt4V6S3lTjlWTAGyBASE/CHY1QF0m+DgGdtpn2zILeD9Nk9dJBvIXXXTR6L1B2remP8i1oWz8UfbxqDJo22gjSB9CmS2SvdLOaNLcF9OMl7rqx2eBJ33GVEBHRQWm8saGnkEUDVB8kZdfyqjocRLCakDXnR3h5S8ml8FX5EhjXJG4+OKLa78uJ4iDQXIcyDUlxtknDLS0siDyl9MXCTrWfHCIvTA5i3ouG1RoEiPdMpCkjBg40FnH1WfCpNNuOtDX5Cv+kMEAhTCijcdfjfUif/4yexVMQKg3yuO4AYXSE1dFyVsTuxqnjy6/akhY5EMry+RH+mZQFyEdtCNaEZSN8ku60tiGOFhUe0PdjmAb1H/92kz+xzFpvYlpUfmQp0Wuh10R7aluAK8V0bIfI1YZbI96wQ+nkS7so+t+Brsd17fGOvS+972vOGsG+VfbhzRti6jfquNVoGP6lTj+IC/U/7PPPjtd14EuGcMofW12zHRdDmVQv2jL8p0yTeyoSfqmHS+h9yb9+EIwTNzKsybZHMuOHfvfxchlOBArXKwn6KCMYQOzSU8CfcX7SNzXHe9zrb3dEtzG62FjnfaT65p4y1DYPM/DyK9xC2Xuqu7Ha/zneZGQ3jKiXshz7h9/8TqPEz+Rpu6j7uL9PiGeKvJ8l6WHNIs8X5LoJuZR4eMvMk4P8VkMN5LbNfqPtkh48Tnp0PNYVwg/L7vcTZRx5RXdKa6YF+7l+lZ7lutDNEnrNOR6QpR2EcucZzGteTnwrIyy8tI5Ohn3XLYT01FWDnlecp0Sj4j38/wuC6S9img3MX/ooEyfEsoh6j63tyi5/7xMcr+5+/x6586dm65VZ+O9KLl/4ovk9lDmPtpItN08XvQS3fK8qi5HYpzTpCeieElDHobKoKo+5fnK4+Q5RDdRyvIICp+wdC6pSmPuTmE38Z+7kcQ6Hom6z8uS81wHdWUb9ViWZxHvxfs5MY95fvNr5bHMXdX9eI3//J6EvJTBs3lxCP8ME7DS8CvrGmTTTIBtoxx+8WRlIv+1il/CulwxWUa6tBn9MpuvFFTpf1mpshvbk1kU3BeYvlj09s/t83S07cfn2dZ4e6cxZhNsDWF7XA73u/4QRBewxYNGlPQtG/n2VMFHT1Zpwlf2vgT3u/qYQRmyi7rtUasMgw50gPQJdU/xLGM9NKvLvPsH4i/rN7lf1s/OGtpHtobmLGq7ySsFTV8rmBXL1I97pc+sNbaNchgs5h3S1q1bF/brmLOkS5uhYy3rMFbNJnkXg3cmIjt27PCvyD0T63GfNhXtePfu3bXvuC0i7gtMXzBJyd+r3bVr1+j95XnDD3D5xG/btm1r8UGmLmjbj8+zrfGkz6w1tg3TFtuMMauH67UxZhbMs63x9k5jjDHGGGOMWWE86TOmB1ju59cc9u0b0xbZD+J3pIwxxhgzLZ70GdMDvL/E8v06/kFeMz3YD+98YEOr8kEXY4wxxswPv9Nn1pq+bIPVGQ/WV5NZtCe2H2Nmi8cJxphZMM+2xit9xjREnz+vA3dHHXVU+iKWMYDdSOqQ/SzaZ6nnCXWpSnd8GbSJXqtoWq9nRdzaG6XsGXk380FlMcvt14qTY0T3/TqBMWYcnvQZ04D46fM6+Nsse/fuLf3bN2Z9iJN+PmPfFOwM9/yJDOxu3Sn7nLhgwK2t1JPQpl7PCv7cQZ4fXfOMtgWwEX9SfT4wyar621x9ItvI/yTGhRdemO5z9DvAxpgqPOkzpgI6T/1yyt/T4R2rOhhEXnTRRWlrHp2wV/vWk0l/ccdesDMGdQzozznnnOLJ9LAqtGwrAax2xglfvsqxZ8+e0SRoEprW61mQr+LEfMVV31NPPTU9ywf+pl9if4Du2/yQ0yfYy/bt29M5fc6i2LMxZvHwpM+YCs4777zirDlbtmzZ9C7Woq0imP5h4sYv7pOAvcQ/2Msfw+/ql3smkSeeeGKaWCDL8IME+Wcgyx9yh3yVA10t87uPlK3KQ6s1yh/5Ur75w86UF5OOSy65xO97zoFJ+oNZcPjhh2+qE+5zjDFVeNJnTAn8ss62MQZi8dd3oYFa/k4NKw96huzbt694svndIT3P/TOo07MoZjlgYK6VKY6UXT5pkx0g+fbNSy+9dPRMfhngx8kBtkk8uo5hRHdRtFLEJImJBQJ6nqdjHIob2+Vc+dNKlUS2HdMK0V1eryKxLpQR9VgXFsTw4spZRM/zejkuLj0DPc/95xA/7li1U3mUbdU888wz0zZfwJ6OPvroTT8KRBQmovTFdJP/qAPcxLLh3JSDbsf1B9K97GqczatM8nYBm5Ebygli+cXr6Dfvc/SDgNoC4o5hG2PWmGFns/KsSTbNBIyzjW3btm1s3769uNrY2LVrV3IvP7t3707ne/fuTdc8Hw7Q0jns2LEjPcdd9Jv75whyL4g/hmcWg1hGOdgC5YYbylOorBFsStexfLnPPWwFFE60L4VB2LpWGLjTc87L4qiCuImvDuUPFL7SRzzKs55xBKVVKK16npOnB7fRP+HFfMW6VkZZeEpr1Cvk+RoXV/Sb+y9Li9wr7CZIV0hVWeo5KH2KQ3aFEL+eI5wrvcg6U5d/7Addiqg3dK1yUrmrrEV8Tlhl9sG9vIzz8BSf7sU0cY5/xSVRGJzL7o0x84F6OC+80mdMS4b1Jh3ZVgNazeP9K7ZeCX6lH3bu6dfh+O5Q7l/cdNNNyb146UtfmrZ1meWhyba7+LcbY/lqSyhbhOGYY45JR1b/IsNBXbKtnLiqTDpkX8SRryoIrfyw7bPpR0FY8WDFgS1l2LLyzFZM0sWzaT5yQVrRBe/GiuFAtTjbz7i6llMWHunOddhXvY5opZUVvklWXbTNM4K+QW0HX34FpUsMJwSbVgmr7Mi0YzjBSnVA9eC2225LxyqoG5Rj3JIpdC/WV4UXbU3w0TDsUKt4nKtNIV0wnPCNwqXMjTHriyd9xnREHMALBu5l98tg0MaAWh3+tddeu2kSaFaXqkkZ3HjjjcXZeOJkg/A0aWGgFyejccsYkz0mIXEyMA7CYfLAe0P4j9sYFS52qwHnJMTJaxVt6lqT8MYxbb0uQ+8qqhy0LbAMfbhFA3a2eUZ7ka5pOwhL73TxI1IXKI1V4m2h7WASRvlXce65545+6KFO6UegMrBBwsOWosT6bowxwpM+YzqEAW9O019X+TWWATW/1DOY4ldbf5LdaMWvDgZ6DPgAG2JFAdvTAFPv9WCjGhw2nexFWKnEL6tvTDRYLWQSwmSDAWhcyZyGusla07qWr9xNwjT1ehwqh6uuumo0iYrvi1FmO3fuTGWLG8FEUGhlj/QoPKSrcohhlolXC7uFekTbT53SKmIVlPl1111XXBljzHg86TOmBjpfbaEaB4NgOuvolmsmck3AHx9qiAMqs9zogwx1aAUNNDnRCt/ZZ5+djk0gPraAyX7iigI/IHBvmskAdUGrewz2822X2orGxyXK0AqVVjKYmOYfxeDHDwazZ5xxRnFnMLj44ovTkUkRtKlr6JYV83zLadOymbZeN0ETdkRb8Vj9Y4u3rnGj7X2s8KgctBLEPaURnXoFrh+a9gdC9j3O5iOyV74Wqgl9FdgHK78xPMpd9cwYYzYx7GRWnjXJppmAcbYxHOyl58MB6KaPHyDDwddB19GPRC/QN/Gfu5EMB5cpDLMYUCbjoMxVdrILXSPDAd1B14Kyjs/2Fh9s4Bjv52HgL3cTRXbYBPlR3BHuxTRSN0S8H8+lA9zqnmx9XLrkFlF4kaq6VkWuM/LSpF5CVVxN/bchD1P2Ee0qCpTZB+TpieWC5DqRv3WE/I9D5YIdl5VzvMYttLV5ofAieRyqn7m9cJ3bSpkdyI3SaoyZDdS7eXEI/wwTsNLw6/AaZNNMwCLZBr8e53/nD/jl1luoFodFbk9YvWIVKmc4+Bz7HlGOVg60ymTMquNxgjFmFsyzrfH2TmMWALbjlP1RXe539UEGs9owUWPCR2cSZceOHa3eP6NDIhxP+DbDjzLoxtsmzaIh22yz7dQYs354pc+sNYtkG3TY+cSv7QqN6Z9Fbk94z4uPq0S2bdvmDwIZU4PHCcaYWTDPtsaTPrPW2DZMW2wzxqwertfGmFkwz7bG2zuNMcasLdoahxhjjDGriid9xhhj1pbLLrts9AeujTHGmFXF2zvNWmPbMG2xzawWfCwp/2KuWT9cr40xs2CebY1X+owxpiP4siMNep0w0eCjK7oe98eaAffR7zxQeieNP26jbPKH0eW2TjeRqCf+uHkdlBd/AFt/6NwYY4xZVTzpM8aYDuFrmfyKF3/J2759e7reu3dvcWfQ6oua5513XvrTC8ill166/2bP5H+a4IYbbkjHffv2pWNbTjrppKSHJjApxC35Lfu7gzlKKyt2u3btSud1MEE866yzUpmQtzaTS2OMMWbZ8KTPGGM65KKLLirODoZJCROZNjAZOeaYY9If6Ncf6e97gkL4F198cXG1H/50CBPXvv9+n1YSL7jggpTfU045ZWx+m6walsHkmXf5KBPydsYZZxRPjDHGmNXDkz5jjOkIJil174c1cRM5/PDD0wRIcM69vmDSdcIJJxRXs4eVxJhfTXTLYIWvyUpgGWefffamCexVV11VnE0P20UnnYwaY4wxfeBJnzHGzJnbbrtt9C5aPlnYs2fP6BnCu3GaNPLeWryv8zyM6C5K/n4e17zjBmx5xA0Tq/z9Q0TXmuDE502IYUaYiMX0El7Z6iLpYnsmcMRtnh/cxHAibJnVM0Q6bZq36C4Kfti6e+KJJ47uafupMcYYMzc21oA1yaaZANuGaUsbm8Etsn379uLOZvR869atm6737t2brnft2rXJ/44dO9I19wF38rNt27ZN1wqDsKOf/HmEe4pTaRLyt3v37nSttCD40TXpqIJ8xHB0jV+h56Awq9JKXLl/pV/3dR3TJX/Ki3QkFC9Sljf86TmUxRHJwzOLh8rSGGP6ZJ5tjVf6jDFmzuzcubM4248+lsLfkANWjUCrcOecc046RqreJdQHWI444oh0HE5w0pEVxJw2207FcKKTPtLSBj7SElfvbrrppnRktRIIE5Tf4UQpHSN1aSWfcWuo9MBq4JVXXpnOlQbpJF+Rq8obK7Mgf9Ktws0hHcP+Nsm1117b6MuixhhjTJd40meMMQuKJio5VffL0MREExX53bJlSzouEnuLr5syeWJb5Mknn5yuNSnsgnFfH20ajyZ50qV0q8lqTtxmygSeD8cYY4wxs8STPmOMWTI0kWsCEwwmI0ygmHQAk6tJVvX6Rit75E8rY0j8sEufHH300cXZeFgh1ARVk1N0HP8MR3zHEpSXtquixhhjTBd40meMMQvKJZdcko6aYOio+01g8sGffIiTqKYTPj5Woi2Xs0Crj6ygKV7S0ORDKE2/lsmETSty+vCLVuzGfSk0hw/B8CcfpNM44eNjLmzj1LM24RpjjDG9MOyQVp41yaaZANuGaUsTm4kf7ogynLQVLg58TESSXwt9JEQSPwSytfgACcJ5fp27iUIaq5Af0gR52uKHTJD8eVnYeT5yP8oXOor3lYYyYjrwX+Y3XscP6uTPRJO85W6ixDI2ywNlZ4wxfTPPtuYQ/hkmYKVhe80aZNNMgG3DtGXZbIYVM70bl8PK4SJu81wGWM0r+3DLcJK4adXPLAfuC4wxs2CebY23dxpjzArDhC9uQ0S4hkWd8MW/gbeIMJFmS2jUKcJXSdlKa4wxxiwanvQZY8wKs2PHjsEJJ5wwmkQhXDNJWVT0NUzI/+D6IqCPsUSdIjCrj84YY4wxbfD2TrPW2DZMW2wzxqwertfGmFkwz7bGK33GGGOMMcYYs8J40meMMcYYY4wxK4wnfcYYY4wxxhizwnjSZ4wxxhhjjDErjCd9xhhjjDHGGLPCrM3XO40xxhhjjDFmnsxr6uU/2WDWGtuGaYttxpjVw/XaGDML5tnWeHunMcYYY4wxxqwwnvQZY4wxxhhjzArjSZ8xxhhjjDHGrDCe9BljjDHGGGPMCuNJnzHGGGOMMcasMJ70GWOMMcaY3jj//PPTVws5GmPmgyd9xhhjVgIGlccdd1xxZVYBypNyNcvNBRdckD5Tf+KJJxZ3jDGzxpM+Y4wxKwGDyp07dw6uueaa4o5ZZq6//vrBJZdc4r+ftyJcfvnlgy1bthRXxphZ4z/ObtYa24Zpi21m8bnlllsGRx55ZHFllpVZlqPrdf+4Xhozz7ZmMPj/AYLTE94OmgCeAAAAAElFTkSuQmCC;" parent="1" vertex="1">
          <mxGeometry x="-1050" y="-140" width="831.99" height="150" as="geometry" />
        </mxCell>
        <mxCell id="rqF0E4ZXU8l-zSK0DjSr-5" value="Role" style="swimlane;childLayout=stackLayout;horizontal=1;startSize=50;horizontalStack=0;rounded=1;fontSize=14;fontStyle=0;strokeWidth=2;resizeParent=0;resizeLast=1;shadow=0;dashed=0;align=center;arcSize=4;whiteSpace=wrap;html=1;" parent="1" vertex="1">
          <mxGeometry x="880" y="30" width="200" height="90" as="geometry" />
>>>>>>> Stashed changes
        </mxCell>
        <mxCell id="rqF0E4ZXU8l-zSK0DjSr-6" value="+ Name&lt;br&gt;&lt;font style=&quot;font-size: 12px;&quot;&gt;&lt;br&gt;&lt;/font&gt;" style="align=left;strokeColor=none;fillColor=none;spacingLeft=4;fontSize=12;verticalAlign=top;resizable=0;rotatable=0;part=1;html=1;" parent="rqF0E4ZXU8l-zSK0DjSr-5" vertex="1">
          <mxGeometry y="50" width="200" height="40" as="geometry" />
        </mxCell>
        <mxCell id="rqF0E4ZXU8l-zSK0DjSr-9" value="User" style="swimlane;childLayout=stackLayout;horizontal=1;startSize=50;horizontalStack=0;rounded=1;fontSize=14;fontStyle=0;strokeWidth=2;resizeParent=0;resizeLast=1;shadow=0;dashed=0;align=center;arcSize=4;whiteSpace=wrap;html=1;" parent="1" vertex="1">
          <mxGeometry x="1120" y="30" width="200" height="190" as="geometry" />
        </mxCell>
        <mxCell id="rqF0E4ZXU8l-zSK0DjSr-10" value="+ FullName&lt;br&gt;&lt;font style=&quot;font-size: 12px;&quot;&gt;+ Email&lt;br&gt;+ DateOfBirth&lt;br&gt;+ PhoneNumber&lt;br&gt;+ Address&lt;br&gt;+ Gender&lt;br&gt;+ Avartar&lt;br&gt;+ Password&lt;br&gt;&lt;br&gt;&lt;/font&gt;" style="align=left;strokeColor=none;fillColor=none;spacingLeft=4;fontSize=12;verticalAlign=top;resizable=0;rotatable=0;part=1;html=1;" parent="rqF0E4ZXU8l-zSK0DjSr-9" vertex="1">
          <mxGeometry y="50" width="200" height="140" as="geometry" />
        </mxCell>
        <mxCell id="rqF0E4ZXU8l-zSK0DjSr-11" value="SystemInfomation" style="swimlane;childLayout=stackLayout;horizontal=1;startSize=50;horizontalStack=0;rounded=1;fontSize=14;fontStyle=0;strokeWidth=2;resizeParent=0;resizeLast=1;shadow=0;dashed=0;align=center;arcSize=4;whiteSpace=wrap;html=1;" parent="1" vertex="1">
          <mxGeometry x="1400" y="30" width="200" height="170" as="geometry" />
        </mxCell>
        <mxCell id="rqF0E4ZXU8l-zSK0DjSr-12" value="&lt;font style=&quot;font-size: 12px;&quot;&gt;???&lt;br&gt;&lt;/font&gt;" style="align=left;strokeColor=none;fillColor=none;spacingLeft=4;fontSize=12;verticalAlign=top;resizable=0;rotatable=0;part=1;html=1;" parent="rqF0E4ZXU8l-zSK0DjSr-11" vertex="1">
          <mxGeometry y="50" width="200" height="120" as="geometry" />
        </mxCell>
        <mxCell id="rqF0E4ZXU8l-zSK0DjSr-13" value="Help" style="swimlane;childLayout=stackLayout;horizontal=1;startSize=50;horizontalStack=0;rounded=1;fontSize=14;fontStyle=0;strokeWidth=2;resizeParent=0;resizeLast=1;shadow=0;dashed=0;align=center;arcSize=4;whiteSpace=wrap;html=1;" parent="1" vertex="1">
          <mxGeometry x="1400" y="270" width="200" height="80" as="geometry" />
        </mxCell>
        <mxCell id="rqF0E4ZXU8l-zSK0DjSr-14" value="&lt;font style=&quot;font-size: 12px;&quot;&gt;+ Content&lt;br&gt;&lt;/font&gt;" style="align=left;strokeColor=none;fillColor=none;spacingLeft=4;fontSize=12;verticalAlign=top;resizable=0;rotatable=0;part=1;html=1;" parent="rqF0E4ZXU8l-zSK0DjSr-13" vertex="1">
          <mxGeometry y="50" width="200" height="30" as="geometry" />
        </mxCell>
        <mxCell id="rqF0E4ZXU8l-zSK0DjSr-15" value="ExamRecentViews" style="swimlane;childLayout=stackLayout;horizontal=1;startSize=50;horizontalStack=0;rounded=1;fontSize=14;fontStyle=0;strokeWidth=2;resizeParent=0;resizeLast=1;shadow=0;dashed=0;align=center;arcSize=4;whiteSpace=wrap;html=1;" parent="1" vertex="1">
<<<<<<< Updated upstream
          <mxGeometry x="840" y="160" width="200" height="90" as="geometry" />
=======
          <mxGeometry x="880" y="160" width="200" height="90" as="geometry" />
>>>>>>> Stashed changes
        </mxCell>
        <mxCell id="rqF0E4ZXU8l-zSK0DjSr-16" value="&lt;font style=&quot;font-size: 12px;&quot;&gt;+ 10 để thi xem gần nhất&lt;br&gt;&lt;/font&gt;" style="align=left;strokeColor=none;fillColor=none;spacingLeft=4;fontSize=12;verticalAlign=top;resizable=0;rotatable=0;part=1;html=1;" parent="rqF0E4ZXU8l-zSK0DjSr-15" vertex="1">
          <mxGeometry y="50" width="200" height="40" as="geometry" />
        </mxCell>
        <mxCell id="sgMxerKWR5e8kCoLdT8S-1" value="Lesson" style="swimlane;childLayout=stackLayout;horizontal=1;startSize=50;horizontalStack=0;rounded=1;fontSize=14;fontStyle=0;strokeWidth=2;resizeParent=0;resizeLast=1;shadow=0;dashed=0;align=center;arcSize=4;whiteSpace=wrap;html=1;" vertex="1" parent="1">
          <mxGeometry x="-30" y="280" width="200" height="170" as="geometry" />
        </mxCell>
        <mxCell id="sgMxerKWR5e8kCoLdT8S-2" value="+ LinkVideo&lt;br&gt;+ Name&lt;font style=&quot;font-size: 12px;&quot;&gt;&lt;br&gt;&lt;/font&gt;" style="align=left;strokeColor=none;fillColor=none;spacingLeft=4;fontSize=12;verticalAlign=top;resizable=0;rotatable=0;part=1;html=1;" vertex="1" parent="sgMxerKWR5e8kCoLdT8S-1">
          <mxGeometry y="50" width="200" height="120" as="geometry" />
        </mxCell>
        <mxCell id="sgMxerKWR5e8kCoLdT8S-3" value="Part" style="swimlane;childLayout=stackLayout;horizontal=1;startSize=50;horizontalStack=0;rounded=1;fontSize=14;fontStyle=0;strokeWidth=2;resizeParent=0;resizeLast=1;shadow=0;dashed=0;align=center;arcSize=4;whiteSpace=wrap;html=1;" vertex="1" parent="1">
          <mxGeometry x="-260" y="280" width="200" height="170" as="geometry" />
        </mxCell>
        <mxCell id="sgMxerKWR5e8kCoLdT8S-4" value="&lt;font style=&quot;font-size: 12px;&quot;&gt;+ Number&lt;br&gt;&lt;/font&gt;" style="align=left;strokeColor=none;fillColor=none;spacingLeft=4;fontSize=12;verticalAlign=top;resizable=0;rotatable=0;part=1;html=1;" vertex="1" parent="sgMxerKWR5e8kCoLdT8S-3">
          <mxGeometry y="50" width="200" height="120" as="geometry" />
        </mxCell>
      </root>
    </mxGraphModel>
  </diagram>
  <diagram id="9m8cMF08R7LXxiTjUqga" name="Trang-2">
    <mxGraphModel dx="3686" dy="2447" grid="1" gridSize="10" guides="1" tooltips="1" connect="1" arrows="1" fold="1" page="1" pageScale="1" pageWidth="850" pageHeight="1100" math="0" shadow="0">
      <root>
        <mxCell id="0" />
        <mxCell id="1" parent="0" />
        <mxCell id="i8WCIHVgDP8gfvhLQi1c-1" value="Exams" style="swimlane;childLayout=stackLayout;horizontal=1;startSize=50;horizontalStack=0;rounded=1;fontSize=14;fontStyle=0;strokeWidth=2;resizeParent=0;resizeLast=1;shadow=0;dashed=0;align=center;arcSize=4;whiteSpace=wrap;html=1;" vertex="1" parent="1">
          <mxGeometry x="440" y="30" width="200" height="200" as="geometry" />
        </mxCell>
        <mxCell id="i8WCIHVgDP8gfvhLQi1c-2" value="+ Type&lt;br&gt;+ Name&lt;br&gt;+ Subject&lt;br&gt;+ Format&lt;br&gt;+&amp;nbsp;Duration&lt;br&gt;&lt;font style=&quot;font-size: 12px;&quot;&gt;+ TeacherCreated&lt;br&gt;+ Status&lt;br&gt;+ FilePath&lt;br&gt;+ Base64&lt;br&gt;&lt;/font&gt;" style="align=left;strokeColor=none;fillColor=none;spacingLeft=4;fontSize=12;verticalAlign=top;resizable=0;rotatable=0;part=1;html=1;" vertex="1" parent="i8WCIHVgDP8gfvhLQi1c-1">
          <mxGeometry y="50" width="200" height="150" as="geometry" />
        </mxCell>
        <mxCell id="i8WCIHVgDP8gfvhLQi1c-3" value="Exam_Questions" style="swimlane;childLayout=stackLayout;horizontal=1;startSize=50;horizontalStack=0;rounded=1;fontSize=14;fontStyle=0;strokeWidth=2;resizeParent=0;resizeLast=1;shadow=0;dashed=0;align=center;arcSize=4;whiteSpace=wrap;html=1;" vertex="1" parent="1">
          <mxGeometry x="200" y="30" width="200" height="90" as="geometry" />
        </mxCell>
        <mxCell id="i8WCIHVgDP8gfvhLQi1c-4" value="&lt;font style=&quot;font-size: 12px;&quot;&gt;+ QuestionContent&lt;br&gt;&lt;/font&gt;" style="align=left;strokeColor=none;fillColor=none;spacingLeft=4;fontSize=12;verticalAlign=top;resizable=0;rotatable=0;part=1;html=1;" vertex="1" parent="i8WCIHVgDP8gfvhLQi1c-3">
          <mxGeometry y="50" width="200" height="40" as="geometry" />
        </mxCell>
        <mxCell id="i8WCIHVgDP8gfvhLQi1c-5" value="Exam_Answers " style="swimlane;childLayout=stackLayout;horizontal=1;startSize=50;horizontalStack=0;rounded=1;fontSize=14;fontStyle=0;strokeWidth=2;resizeParent=0;resizeLast=1;shadow=0;dashed=0;align=center;arcSize=4;whiteSpace=wrap;html=1;" vertex="1" parent="1">
          <mxGeometry x="-50" y="30" width="200" height="110" as="geometry" />
        </mxCell>
        <mxCell id="i8WCIHVgDP8gfvhLQi1c-6" value="+ QuestionID&lt;br&gt;&lt;font style=&quot;font-size: 12px;&quot;&gt;+ AnswerContent&lt;br&gt;+ IsCorrect&lt;br&gt;&lt;/font&gt;" style="align=left;strokeColor=none;fillColor=none;spacingLeft=4;fontSize=12;verticalAlign=top;resizable=0;rotatable=0;part=1;html=1;" vertex="1" parent="i8WCIHVgDP8gfvhLQi1c-5">
          <mxGeometry y="50" width="200" height="60" as="geometry" />
        </mxCell>
        <mxCell id="aLQjhm4Mi8vVCx_B_pOy-1" value="Notification" style="swimlane;childLayout=stackLayout;horizontal=1;startSize=50;horizontalStack=0;rounded=1;fontSize=14;fontStyle=0;strokeWidth=2;resizeParent=0;resizeLast=1;shadow=0;dashed=0;align=center;arcSize=4;whiteSpace=wrap;html=1;" vertex="1" parent="1">
          <mxGeometry x="-290" y="260" width="200" height="110" as="geometry" />
        </mxCell>
        <mxCell id="aLQjhm4Mi8vVCx_B_pOy-2" value="+ Content&lt;br&gt;+ IsRead&lt;br&gt;+ TimeCounter&lt;br&gt;&lt;font style=&quot;font-size: 12px;&quot;&gt;&lt;br&gt;&lt;/font&gt;" style="align=left;strokeColor=none;fillColor=none;spacingLeft=4;fontSize=12;verticalAlign=top;resizable=0;rotatable=0;part=1;html=1;" vertex="1" parent="aLQjhm4Mi8vVCx_B_pOy-1">
          <mxGeometry y="50" width="200" height="60" as="geometry" />
        </mxCell>
        <mxCell id="aLQjhm4Mi8vVCx_B_pOy-3" value="NotificationSetting" style="swimlane;childLayout=stackLayout;horizontal=1;startSize=50;horizontalStack=0;rounded=1;fontSize=14;fontStyle=0;strokeWidth=2;resizeParent=0;resizeLast=1;shadow=0;dashed=0;align=center;arcSize=4;whiteSpace=wrap;html=1;" vertex="1" parent="1">
          <mxGeometry x="-290" y="390" width="200" height="140" as="geometry" />
        </mxCell>
        <mxCell id="aLQjhm4Mi8vVCx_B_pOy-4" value="+ UserID&lt;br&gt;+&amp;nbsp;ManageSubjects1&lt;br&gt;+&amp;nbsp;ManageSubjects2&lt;br&gt;&lt;font style=&quot;font-size: 12px;&quot;&gt;+ PrivateFile&lt;br&gt;+ .....&lt;br&gt;&lt;/font&gt;" style="align=left;strokeColor=none;fillColor=none;spacingLeft=4;fontSize=12;verticalAlign=top;resizable=0;rotatable=0;part=1;html=1;" vertex="1" parent="aLQjhm4Mi8vVCx_B_pOy-3">
          <mxGeometry y="50" width="200" height="90" as="geometry" />
        </mxCell>
        <mxCell id="TE4yKmnn7tX6r1Sk0Yyy-1" value="SystemInfomation" style="swimlane;childLayout=stackLayout;horizontal=1;startSize=50;horizontalStack=0;rounded=1;fontSize=14;fontStyle=0;strokeWidth=2;resizeParent=0;resizeLast=1;shadow=0;dashed=0;align=center;arcSize=4;whiteSpace=wrap;html=1;" vertex="1" parent="1">
          <mxGeometry x="210" y="320" width="200" height="230" as="geometry" />
        </mxCell>
        <mxCell id="TE4yKmnn7tX6r1Sk0Yyy-2" value="&lt;font style=&quot;font-size: 12px;&quot;&gt;+ SchoolID&amp;nbsp;&lt;br&gt;+ Name&lt;br&gt;+ SchoolWebsite&lt;br style=&quot;border-color: var(--border-color);&quot;&gt;+ SchoolType&amp;nbsp;&lt;br&gt;+ Principals&lt;br style=&quot;border-color: var(--border-color);&quot;&gt;+&amp;nbsp;LibrarySystemName&lt;br&gt;+ LMSWebsite&lt;br&gt;+ PhoneNumber&lt;br&gt;+ Email&lt;br&gt;+ Language&lt;br&gt;+&amp;nbsp;AcademicYear&lt;span style=&quot;&quot;&gt;&lt;span style=&quot;white-space: pre;&quot;&gt;&amp;nbsp;&amp;nbsp;&amp;nbsp;&amp;nbsp;&lt;/span&gt;&lt;/span&gt;&lt;br&gt;&lt;/font&gt;" style="align=left;strokeColor=none;fillColor=none;spacingLeft=4;fontSize=12;verticalAlign=top;resizable=0;rotatable=0;part=1;html=1;" vertex="1" parent="TE4yKmnn7tX6r1Sk0Yyy-1">
          <mxGeometry y="50" width="200" height="180" as="geometry" />
        </mxCell>
        <mxCell id="P51a1BhzWh5Ktsi9IbV2-1" value="Role" style="swimlane;childLayout=stackLayout;horizontal=1;startSize=50;horizontalStack=0;rounded=1;fontSize=14;fontStyle=0;strokeWidth=2;resizeParent=0;resizeLast=1;shadow=0;dashed=0;align=center;arcSize=4;whiteSpace=wrap;html=1;" vertex="1" parent="1">
          <mxGeometry x="850" y="30" width="200" height="130" as="geometry" />
        </mxCell>
        <mxCell id="P51a1BhzWh5Ktsi9IbV2-2" value="+ Name&lt;br&gt;+ Description&lt;br&gt;+ DateUpdated&lt;br&gt;&lt;font style=&quot;font-size: 12px;&quot;&gt;&lt;br&gt;&lt;/font&gt;" style="align=left;strokeColor=none;fillColor=none;spacingLeft=4;fontSize=12;verticalAlign=top;resizable=0;rotatable=0;part=1;html=1;" vertex="1" parent="P51a1BhzWh5Ktsi9IbV2-1">
          <mxGeometry y="50" width="200" height="80" as="geometry" />
        </mxCell>
        <mxCell id="P51a1BhzWh5Ktsi9IbV2-4" value="RoleSetting" style="swimlane;childLayout=stackLayout;horizontal=1;startSize=50;horizontalStack=0;rounded=1;fontSize=14;fontStyle=0;strokeWidth=2;resizeParent=0;resizeLast=1;shadow=0;dashed=0;align=center;arcSize=4;whiteSpace=wrap;html=1;" vertex="1" parent="1">
          <mxGeometry x="1120" y="30" width="200" height="150" as="geometry" />
        </mxCell>
        <mxCell id="P51a1BhzWh5Ktsi9IbV2-5" value="+ Subject_View&lt;br&gt;+ Subject_Edit&lt;br&gt;+ PrivateFile_Create&lt;br&gt;+ PrivateFile_View&lt;br&gt;+ ...&lt;br&gt;&lt;font style=&quot;font-size: 12px;&quot;&gt;&lt;br&gt;&lt;/font&gt;" style="align=left;strokeColor=none;fillColor=none;spacingLeft=4;fontSize=12;verticalAlign=top;resizable=0;rotatable=0;part=1;html=1;" vertex="1" parent="P51a1BhzWh5Ktsi9IbV2-4">
          <mxGeometry y="50" width="200" height="100" as="geometry" />
        </mxCell>
        <mxCell id="mESRhH9-O4FtU5LeXDux-1" value="&lt;font style=&quot;font-size: 18px;&quot;&gt;&lt;b&gt;NOTE:&lt;/b&gt;&lt;br&gt;&lt;/font&gt;Recomend lưu file vào đám mây để giảm tải cho server api và server client&lt;span style=&quot;white-space: pre;&quot;&gt;&#x9;&lt;/span&gt;" style="rounded=0;whiteSpace=wrap;html=1;align=left;" vertex="1" parent="1">
          <mxGeometry x="-290" y="-160" width="190" height="90" as="geometry" />
        </mxCell>
        <mxCell id="Uskyn0reltzPtsGvfrjN-1" value="Lesson_Questions" style="swimlane;childLayout=stackLayout;horizontal=1;startSize=50;horizontalStack=0;rounded=1;fontSize=14;fontStyle=0;strokeWidth=2;resizeParent=0;resizeLast=1;shadow=0;dashed=0;align=center;arcSize=4;whiteSpace=wrap;html=1;" vertex="1" parent="1">
          <mxGeometry x="180" y="700" width="200" height="170" as="geometry" />
        </mxCell>
        <mxCell id="Uskyn0reltzPtsGvfrjN-2" value="&lt;font style=&quot;font-size: 12px;&quot;&gt;+&amp;nbsp;QuestionID &lt;br style=&quot;border-color: var(--border-color);&quot;&gt;&lt;font style=&quot;border-color: var(--border-color);&quot;&gt;+&amp;nbsp;UserID&lt;br style=&quot;border-color: var(--border-color);&quot;&gt;+&amp;nbsp;Content&lt;br style=&quot;border-color: var(--border-color);&quot;&gt;+ LikeCounter&lt;br style=&quot;border-color: var(--border-color);&quot;&gt;+&amp;nbsp;CreatedAt&lt;/font&gt;&lt;br&gt;&lt;/font&gt;" style="align=left;strokeColor=none;fillColor=none;spacingLeft=4;fontSize=12;verticalAlign=top;resizable=0;rotatable=0;part=1;html=1;" vertex="1" parent="Uskyn0reltzPtsGvfrjN-1">
          <mxGeometry y="50" width="200" height="120" as="geometry" />
        </mxCell>
        <mxCell id="Uskyn0reltzPtsGvfrjN-3" value="Lesson_Answers " style="swimlane;childLayout=stackLayout;horizontal=1;startSize=50;horizontalStack=0;rounded=1;fontSize=14;fontStyle=0;strokeWidth=2;resizeParent=0;resizeLast=1;shadow=0;dashed=0;align=center;arcSize=4;whiteSpace=wrap;html=1;" vertex="1" parent="1">
          <mxGeometry x="-70" y="700" width="200" height="170" as="geometry" />
        </mxCell>
        <mxCell id="Uskyn0reltzPtsGvfrjN-4" value="+&amp;nbsp;LessonID &lt;br&gt;&lt;font style=&quot;font-size: 12px;&quot;&gt;+&amp;nbsp;UserID &lt;br&gt;+&amp;nbsp;Content&lt;br&gt;+ LikeCounter&lt;br&gt;+&amp;nbsp;CreatedAt&lt;br&gt;&lt;/font&gt;" style="align=left;strokeColor=none;fillColor=none;spacingLeft=4;fontSize=12;verticalAlign=top;resizable=0;rotatable=0;part=1;html=1;" vertex="1" parent="Uskyn0reltzPtsGvfrjN-3">
          <mxGeometry y="50" width="200" height="120" as="geometry" />
        </mxCell>
        <mxCell id="Uskyn0reltzPtsGvfrjN-5" value="User" style="swimlane;childLayout=stackLayout;horizontal=1;startSize=50;horizontalStack=0;rounded=1;fontSize=14;fontStyle=0;strokeWidth=2;resizeParent=0;resizeLast=1;shadow=0;dashed=0;align=center;arcSize=4;whiteSpace=wrap;html=1;" vertex="1" parent="1">
          <mxGeometry x="460" y="700" width="200" height="120" as="geometry" />
        </mxCell>
        <mxCell id="Uskyn0reltzPtsGvfrjN-6" value="&lt;font style=&quot;font-size: 12px;&quot;&gt;+&amp;nbsp;...&lt;br style=&quot;border-color: var(--border-color);&quot;&gt;&lt;font style=&quot;border-color: var(--border-color);&quot;&gt;+&amp;nbsp;LikedQuestions&lt;br style=&quot;border-color: var(--border-color);&quot;&gt;+&amp;nbsp;LikedAnswers&lt;/font&gt;&lt;br&gt;&lt;/font&gt;" style="align=left;strokeColor=none;fillColor=none;spacingLeft=4;fontSize=12;verticalAlign=top;resizable=0;rotatable=0;part=1;html=1;" vertex="1" parent="Uskyn0reltzPtsGvfrjN-5">
          <mxGeometry y="50" width="200" height="70" as="geometry" />
        </mxCell>
      </root>
    </mxGraphModel>
  </diagram>
</mxfile>
